<svg viewBox="0 0 512 512" xmlns="http://www.w3.org/2000/svg"><g id="filled_outline" data-name="filled outline"><path d="m488 120v160l-8 16 8 160v32h-296v-368l8-64h280z" fill="#f55648"/><path d="m247.273 338.126a24 24 0 0 0 -36.442-14.188 55.94 55.94 0 0 0 -78.988-6.669 15.98 15.98 0 0 0 -26.137 17.89c-.116.292-.242.578-.347.875-.453-.011-.9-.034-1.359-.034a56.013 56.013 0 0 0 -55.433 48h238.866a56.057 56.057 0 0 0 -40.16-45.874z" fill="#fbb540"/><path d="m488 278.52v177.48h-32l-40-48v48h-48.3v-56l-6.91-14.14a185.883 185.883 0 0 1 -18.86-81.56h-47.76a16.216 16.216 0 0 1 -7.2-1.7l-22.06-11.04a16.093 16.093 0 0 1 -8.91-14.41v-24.41a17.18 17.18 0 0 1 17.19-17.18h20.46a8.6 8.6 0 0 0 7.69-4.75l17.17-34.34a22.556 22.556 0 0 1 20.17-12.47h40.24a44.052 44.052 0 0 1 41.79 30.12l15.73 47.21z" fill="#ebebeb"/><path d="m352 152h-128l8-16-8-16h128l-8 16z" fill="#ea9d2d"/><path d="m256 456h232v32h-232z" fill="#dc4d41"/><path d="m312 488h-288l9.85-64 2.46-16 3.69-24h256z" fill="#6cbae5"/><circle cx="120" cy="328" fill="#da922a" r="16"/><circle cx="168" cy="368" fill="#da922a" r="16"/><circle cx="224" cy="336" fill="#da922a" r="16"/><g fill="#4799cf"><circle cx="144" cy="432" r="8"/><circle cx="168" cy="416" r="8"/><circle cx="192" cy="432" r="8"/><path d="m184 448a16 16 0 0 0 -32 0 8 8 0 0 0 0 16h32a8 8 0 0 0 0-16z"/></g><circle cx="343.784" cy="225.105" fill="#744630" r="10.45"/><path d="m435.451 254.131-12 16.8a100.183 100.183 0 0 1 -81.522 41.953v34.37a140.549 140.549 0 0 0 110.94-54.254l16.448-21.147a2 2 0 0 0 -.684-3.017l-30.66-15.33a2 2 0 0 0 -2.522.625z" fill="#4799cf"/><path d="m289.18 235.56-2.27 6.82a22.518 22.518 0 0 1 -21.36 15.4h-9.55v-5.04a17.18 17.18 0 0 1 17.19-17.18z" fill="#744630"/><circle cx="288" cy="136" fill="#fbb540" r="32"/><path d="m200 24h280v32h-280z" fill="#dc4d41"/><path d="m424 456h-16v-48a8 8 0 0 1 1.344-4.438l16-24 13.312 8.876-14.656 21.984z" fill="#cdcdcd"/><path d="m488 120v8h-72v-16h71z" fill="#dc4d41"/><path d="m384 112h16v16h-16z" fill="#dc4d41"/><path d="m88 408v16h-54.15l2.46-16z" fill="#4799cf"/><path d="m104 408h16v16h-16z" fill="#4799cf"/><path d="m376.3 184v60.148a25.778 25.778 0 0 0 25.778 25.778 25.778 25.778 0 0 0 25.778-25.778v-31.814a28.335 28.335 0 0 0 -28.338-28.334z" fill="#744630"/><circle cx="333.333" cy="330.074" fill="#fece2f" r="17.185"/><circle cx="144" cy="432" r="8"/><circle cx="168" cy="416" r="8"/><circle cx="192" cy="432" r="8"/><path d="m184 448a16 16 0 0 0 -32 0 8 8 0 0 0 0 16h32a8 8 0 0 0 0-16z"/><path d="m350.138 233.4a10.45 10.45 0 1 0 -14.65-1.942 10.45 10.45 0 0 0 14.65 1.942z"/><path d="m288 176a39.962 39.962 0 0 0 31.978-16h32.022a8 8 0 0 0 7.155-11.578l-6.211-12.422 6.211-12.422a8 8 0 0 0 -7.155-11.578h-32.022a39.956 39.956 0 0 0 -63.956 0h-32.022a8 8 0 0 0 -7.155 11.578l6.211 12.422-6.211 12.422a8 8 0 0 0 7.155 11.578h32.022a39.962 39.962 0 0 0 31.978 16zm51.056-48-2.211 4.422a8 8 0 0 0 0 7.156l2.211 4.422h-11.856a40.154 40.154 0 0 0 0-16zm-51.056-16a24 24 0 1 1 -24 24 24.028 24.028 0 0 1 24-24zm-51.056 32 2.211-4.422a8 8 0 0 0 0-7.156l-2.211-4.422h11.861a40.154 40.154 0 0 0 0 16z"/><path d="m384 112h16v16h-16z"/><path d="m104 408h16v16h-16z"/><path d="m488.9 62.7c-.006-.053-.014-.1-.021-.158l-.9-6.176c.006-.123.019-.244.019-.368v-31.998a8 8 0 0 0 -8-8h-279.998a8 8 0 0 0 -8 8v31.5l-7.938 63.5a8.019 8.019 0 0 0 -.062 1v178.049a63.761 63.761 0 0 0 -52.1 9.13 23.973 23.973 0 0 0 -35.9 20.821v.506a64.411 64.411 0 0 0 -53.964 47.494h-2.036a8 8 0 0 0 -7.907 6.783l-16 104a8 8 0 0 0 7.907 9.217h464a8 8 0 0 0 8-8v-368c0-.332-7.1-57.3-7.1-57.3zm-64.9 367.4 14.92 17.9h-14.92zm1.97-22.629 12.686-19.029-13.312-8.876-16 24a8 8 0 0 0 -1.344 4.434v40h-32.3v-48a8.008 8.008 0 0 0 -.812-3.513l-6.911-14.141a177.094 177.094 0 0 1 -10.815-27.875 147.64 147.64 0 0 0 50.038-14.316 149.4 149.4 0 0 0 51.989-42.245l12.695-16.33 8.116 2.706v163.714h-20.253zm-161.97-135.471h1.551a30.475 30.475 0 0 0 28.949-20.864l2.648-7.944a16.513 16.513 0 0 0 11.348-8.8l17.17-34.34a14.474 14.474 0 0 1 13.014-8.052h29.62v52.148a33.759 33.759 0 0 0 39.2 33.337 92.47 92.47 0 0 1 -57.562 27.05c0-.075 0-.166 0-.235a8 8 0 0 0 -8-8h-47.768a8.223 8.223 0 0 1 -3.62-.855l-22.073-11.045a8.044 8.044 0 0 1 -4.477-7.25zm0-16v-3.26a9.2 9.2 0 0 1 9.19-9.18h6.968l-.838 2.515a14.5 14.5 0 0 1 -13.769 9.925zm92.367 63.906a108.46 108.46 0 0 0 73.595-44.318l8.706-12.2 18.5 11.045-10.614 13.657a133.317 133.317 0 0 1 -46.386 37.692 131.8 131.8 0 0 1 -43.068 12.618 25.1 25.1 0 0 0 -.732-18.49zm63.485-75.758a17.778 17.778 0 1 1 -35.556 0v-52.148h15.222a20.357 20.357 0 0 1 20.334 20.334zm-86.519 76.741a9.185 9.185 0 1 1 -9.185 9.185 9.2 9.2 0 0 1 9.185-9.185zm-125.333-288.889h264v16h-264zm-88 288a7.9 7.9 0 0 1 5.916 2.643 8.437 8.437 0 0 0 .642.628 7.968 7.968 0 0 0 .377.735 7.874 7.874 0 0 1 1.065 3.994 8 8 0 0 1 -14.935 3.994c-.023-.04-.051-.077-.075-.117-.046-.1-.084-.206-.135-.307a7.905 7.905 0 0 1 -.855-3.57 8.009 8.009 0 0 1 8-8zm-17.836 24.042a23.984 23.984 0 0 0 40.241-24.617 47.874 47.874 0 0 1 59.677 6.815 23.993 23.993 0 0 0 43.711 19.8 47.992 47.992 0 0 1 31.47 29.96h-86.639a24 24 0 1 0 -45.248 0h-86.627a48.3 48.3 0 0 1 43.415-31.958zm121.836-16.042a8 8 0 1 1 -8 8 8.009 8.009 0 0 1 8-8zm-64 40a8 8 0 1 1 8 8 8.009 8.009 0 0 1 -8-8zm-126.675 112 8.615-56h46.06v-16h-43.6l2.461-16h242.276l13.538 88zm262.675-104h-2.019a63.971 63.971 0 0 0 -44.463-45.553l-2.345-.685a23.978 23.978 0 0 0 -34.073-15.131 64.007 64.007 0 0 0 -13.1-10.031v-184.1l7.062-56.5h265.86l.112.767 5.9 47.233h-62.934v16h64v139.42l-7.607-2.535-31.852-19.014a7.963 7.963 0 0 0 -4.7-1.1c0-.208.016-.414.016-.623v-31.814a36.375 36.375 0 0 0 -36.339-36.334h-60.838a30.389 30.389 0 0 0 -27.326 16.892l-17.165 34.331a.6.6 0 0 1 -.539.337h-20.46a25.213 25.213 0 0 0 -25.19 25.18v24.41a23.952 23.952 0 0 0 13.33 21.564l22.087 11.054a24.357 24.357 0 0 0 10.753 2.532h21.338a25.173 25.173 0 0 0 24.966 41.922 193.118 193.118 0 0 0 13.126 35.151l6.1 12.478v46.149h-45.759l-10.034-65.217a8 8 0 0 0 -7.907-6.783zm184 104h-161.136l-2.464-16h163.6z"/></g></svg>