<svg height="512pt" viewBox="-26 0 512 512.00067" width="512pt" xmlns="http://www.w3.org/2000/svg"><g fill-rule="evenodd"><path d="m87.355469 104.226562c12.847656-14.925781 21.339843-33.757812 26.042969-51.308593 3.058593-11.402344 4.515624-22.261719 4.523437-31.15625-40.078125-17.820313-118.277344-4.320313-106.777344 108.929687 27.953125 5.289063 49.765625-2.480468 66.183594-16.453125 3.601563-3.0625 6.941406-6.425781 10.027344-10.011719zm0 0" fill="#8690af"/><path d="m113.402344 52.917969c-4.707032 17.550781-13.199219 36.382812-26.042969 51.308593 12.953125 27.441407 50.050781 65.5625 94.6875 100.648438 15.316406 12.042969 31.523437 23.726562 47.949219 34.5 39.480468 25.898438 80.21875 46.53125 112.890625 54.195312 2.835937-17.851562 7.378906-35.410156 12.40625-53.085937-78.367188-20.140625-213.800781-128.066406-241.890625-187.566406zm0 0" fill="#ff5d7d"/><path d="m182.046875 204.875c-44.636719-35.085938-81.734375-73.207031-94.6875-100.648438-3.089844 3.585938-6.429687 6.949219-10.027344 10.011719 2.222657 45.855469 16.03125 86.355469 27.375 126.246094 22.398438-5.753906 49.457031-18.691406 77.339844-35.609375zm0 0" fill="#b6bccf"/><path d="m229.996094 239.375c-39.480469 25.898438-80.210938 46.53125-112.882813 54.195312 1.902344 11.96875 3.039063 24.070313 3.039063 36.429688h219.695312c0-12.359375 1.136719-24.460938 3.039063-36.429688-32.671875-7.664062-73.410157-28.296874-112.890625-54.195312zm0 0" fill="#b6bccf"/><path d="m346.601562 52.917969c4.703126 17.550781 13.195313 36.382812 26.042969 51.308593-12.957031 27.441407-50.054687 65.5625-94.691406 100.648438-15.316406 12.042969-31.523437 23.726562-47.949219 34.5-39.480468 25.898438-80.21875 46.53125-112.890625 54.195312-2.835937-17.851562-7.378906-35.410156-12.40625-53.085937 78.367188-20.140625 213.800781-128.066406 241.894531-187.566406zm0 0" fill="#ff5d7d"/><path d="m230 71.707031c-23.257812 0-42.238281-3.371093-61.074219-9.90625-25.859375-8.96875-21.296875-34.535156-10.082031-47.574219-2.742188-1.339843-5.539062-2.746093-8.40625-4.226562l-32.511719 11.761719c-.011719 8.894531-1.46875 19.753906-4.523437 31.160156 15.46875 32.761719 63.484375 80.207031 116.597656 119.597656 53.117188-39.390625 101.132812-86.835937 116.601562-119.597656-3.058593-11.40625-4.515624-22.265625-4.523437-31.160156l-32.511719-11.761719c-2.871094 1.480469-5.664062 2.886719-8.410156 4.226562 11.21875 13.039063 15.78125 38.605469-10.078125 47.574219-18.839844 6.535157-37.820313 9.90625-61.078125 9.90625zm0 0" fill="#b6bccf"/><path d="m372.644531 104.226562c-12.957031 27.441407-50.054687 65.5625-94.691406 100.648438 0 .003906 0 .003906-.003906.007812 27.882812 16.917969 54.945312 29.847657 77.34375 35.601563 11.34375-39.890625 25.15625-80.390625 27.378906-126.246094-3.601563-3.0625-6.941406-6.425781-10.027344-10.011719zm0 0" fill="#b6bccf"/><path d="m230 71.707031c23.257812 0 42.238281-3.371093 61.078125-9.90625 25.859375-8.96875 21.296875-34.535156 10.078125-47.574219-23.03125 11.238282-42.4375 17.480469-71.15625 17.480469s-48.125-6.242187-71.15625-17.480469c-11.214844 13.039063-15.777344 38.605469 10.082031 47.574219 18.835938 6.535157 37.816407 9.90625 61.074219 9.90625zm0 0" fill="#8690af"/><path d="m346.601562 52.917969c4.703126 17.550781 13.195313 36.382812 26.042969 51.308593 3.085938 3.585938 6.425781 6.949219 10.027344 10.011719 16.417969 13.972657 38.234375 21.742188 66.1875 16.453125 11.5-113.25-66.703125-126.75-106.78125-108.929687.007813 8.894531 1.464844 19.753906 4.523437 31.15625zm0 0" fill="#8690af"/><path d="m339.847656 330h-145.957031l-23.875 121.871094 59.984375 50.128906 59.984375-50.128906 66.75 50.128906 35.5-50.128906zm0 0" fill="#8690af"/><path d="m170.015625 451.871094 23.875-121.871094h-73.738281l-52.386719 121.871094 35.5 50.128906zm0 0" fill="#8690af"/></g><path d="m422.992188 20.578125c-25.5625-18.511719-58.355469-18.199219-81.144532-9.535156l-28.882812-10.445313c-2.613282-.945312-5.507813-.761718-7.980469.511719-26.511719 13.664063-45.386719 20.597656-74.984375 20.597656s-48.472656-6.933593-74.984375-20.597656c-2.472656-1.273437-5.367187-1.457031-7.980469-.515625l-28.882812 10.449219c-22.789063-8.667969-55.585938-8.976563-81.144532 9.535156-20.011718 14.496094-42.472656 45.542969-35.8125 111.121094.445313 4.40625 3.738282 7.992187 8.089844 8.816406 21.632813 4.09375 41.882813 1.222656 59.445313-8.289063 3.648437 33.285157 12.5625 63.714844 21.222656 93.289063 10.191406 34.792969 19.820313 67.695313 20.183594 102.464844l-51.558594 119.941406c-1.375 3.199219-.988281 6.886719 1.023437 9.730469l35.5 50.128906c3.207032 4.527344 9.726563 5.550781 14.167969 2.214844l60.414063-45.371094 53.902344 45.046875c1.855468 1.554687 4.136718 2.328125 6.414062 2.328125s4.558594-.773438 6.410156-2.328125l53.90625-45.046875 60.414063 45.371094c4.441406 3.335937 10.960937 2.3125 14.167969-2.214844l35.5-50.128906c2.011718-2.84375 2.398437-6.53125 1.023437-9.730469l-51.554687-119.941406c.359374-34.769531 9.988281-67.671875 20.179687-102.464844 8.664063-29.574219 17.574219-60.003906 21.222656-93.289063 17.5625 9.515626 37.816407 12.382813 59.449219 8.289063 4.347656-.824219 7.640625-4.410156 8.089844-8.816406 6.65625-65.578125-15.800782-96.625-35.816406-111.121094zm-176.203126 151.757813c35.863282-27.707032 75.277344-63.6875 97.464844-95.800782 4.226563 9.972656 9.671875 19.875 16.503906 28.875-13.199218 23.40625-43.640624 55.242188-83.507812 87.242188-10.007812-6.238282-20.21875-13.042969-30.460938-20.316406zm89.269532-120.683594c-13.871094 26.582031-50.285156 64.605468-96.058594 100.632812v-70.796875c19.28125-.835937 36.777344-4.140625 54.355469-10.238281 16.363281-5.675781 22.371093-16.410156 24.527343-24.417969 1.964844-7.289062 1.460938-15.476562-1.144531-23.242187l14.621094 5.289062c.503906 6.761719 1.703125 14.535156 3.699219 22.773438zm-38.507813-24.695313c2.152344 4.527344 3.308594 9.890625 2.019531 14.671875-1.328124 4.929688-5.179687 8.4375-11.773437 10.722656-18.644531 6.46875-36.46875 9.355469-57.796875 9.355469-21.324219 0-39.152344-2.886719-57.796875-9.355469-6.59375-2.285156-10.445313-5.792968-11.773437-10.722656-1.289063-4.78125-.128907-10.144531 2.019531-14.671875 21.375 9.621094 40.757812 14.75 67.550781 14.75s46.175781-5.128906 67.550781-14.75zm-155.289062-3.367187c-2.605469 7.765625-3.109375 15.953125-1.144531 23.242187 2.15625 8.003907 8.164062 18.738281 24.53125 24.417969 17.574218 6.097656 35.070312 9.402344 54.351562 10.234375v70.796875c-5.109375-4.027344-10.191406-8.148438-15.222656-12.355469-4.234375-3.542969-10.539063-2.984375-14.085938 1.253907-3.542968 4.234374-2.980468 10.542968 1.253906 14.085937 9.832032 8.21875 19.902344 16.148437 30.171876 23.8125 10.339843 7.71875 20.972656 15.042969 31.65625 22.28125 21.976562 14.886719 67.214843 38.867187 89.230468 45.960937-3.078125 11.253907-5.863281 22.449219-8.070312 33.746094-50.058594-15.042968-96.210938-45.515625-137.472656-76.867187-20.652344-15.691407-40.542969-32.488281-58.957032-50.769531-14.558594-14.449219-29.125-30.039063-39.265625-48.019532 6.84375-9.015625 12.296875-18.9375 16.527344-28.933594 3.167969 4.566407 6.75 9.316407 10.746094 14.234376 1.976562 2.429687 4.859375 3.695312 7.765625 3.695312 2.21875 0 4.449218-.734375 6.304687-2.242188 4.285157-3.484374 4.9375-9.78125 1.453125-14.066406-7.960937-9.792968-14.03125-18.671875-18.09375-26.445312 1.996094-8.238282 3.195313-16.011719 3.699219-22.777344zm97.738281 296.410156v-62.347656c33.46875 20.636718 65.144531 35.660156 91.714844 43.3125-.785156 6.277344-1.347656 12.613281-1.640625 19.035156zm-110.074219 0c-.292969-6.421875-.855469-12.757812-1.640625-19.035156 26.191406-7.582032 58.003906-22.640625 91.714844-43.386719v62.421875zm57.515625-98.355469c8.117188 6.113281 16.230469 11.957031 24.296875 17.523438-32.042969 19.929687-62.085937 34.449219-86.671875 41.894531-2.210937-11.304688-4.996094-22.503906-8.078125-33.761719 18.714844-6.0625 40.644531-16.394531 64.316407-30.332031 2.027343 1.558594 4.066406 3.117188 6.136718 4.675781zm-116.523437-115.082031c-.046875.039062-.09375.078125-.136719.117188-.238281.203124-.480469.40625-.71875.601562-14.089844 11.660156-30.753906 16.574219-49.621094 14.667969-2.6875-40.414063 7.035156-69.769531 28.296875-85.171875 18.289063-13.242188 41.601563-13.765625 58.90625-8.238282-.535156 6.777344-1.832031 14.132813-3.847656 21.632813-.042969.148437-.085937.300781-.121094.453125-5.621093 20.605469-16.726562 42.246094-32.757812 55.9375zm17.21875 18.746094c15.660156 23.015625 42.476562 50.539062 76.332031 78.289062-19.570312 11.101563-37.539062 19.402344-52.941406 24.453125-.785156-2.710937-1.582032-5.425781-2.378906-8.15625-8.824219-30.117187-17.914063-61.15625-21.011719-94.585937zm17.347656 362.519531-26.316406-37.160156 47.570312-110.667969h55.003907l-20.800782 106.179688zm249.035156 0-55.460937-41.648437-2.546875-13.007813c-1.0625-5.421875-6.3125-8.953125-11.734375-7.894531-5.417969 1.0625-8.953125 6.316406-7.890625 11.738281l2.148437 10.972656-49.035156 40.980469-49.035156-40.980469 21.15625-107.988281h55.757812l1.703125 8.691406c.9375 4.773438 5.117188 8.082032 9.804688 8.082032.636719 0 1.285156-.0625 1.933593-.1875 5.417969-1.0625 8.953126-6.316407 7.890626-11.738282l-.949219-4.847656h55l47.574219 110.667969zm-3.667969-267.933594c-.796874 2.726563-1.589843 5.4375-2.378906 8.144531-15.496094-5.105468-33.582031-13.535156-52.910156-24.488281 34.101562-27.964843 60.726562-55.300781 76.296875-78.203125-3.101563 33.414063-12.1875 64.441406-21.007813 94.546875zm88.707032-97.945312c-18.867188 1.90625-35.535156-3.011719-49.621094-14.667969-16.496094-13.652344-27.894531-35.699219-33.613281-56.675781-.035157-.144531-.078125-.289063-.117188-.429688-2.019531-7.503906-3.316406-14.859375-3.851562-21.636719 17.308593-5.527343 40.621093-5.003906 58.90625 8.238282 21.261719 15.398437 30.980469 44.757812 28.296875 85.171875zm0 0"/><path d="m276.808594 381.003906c-5.480469.6875-9.367188 5.683594-8.683594 11.164063v.007812c.632812 5.058594 4.941406 8.757813 9.910156 8.757813.414063 0 .832032-.027344 1.253906-.078125 5.480469-.683594 9.367188-5.6875 8.683594-11.167969-.6875-5.480469-5.683594-9.367188-11.164062-8.683594zm0 0"/><path d="m164.863281 127.464844c2.402344 0 4.808594-.859375 6.726563-2.601563 4.085937-3.714843 4.386718-10.042969.671875-14.128906l-.003907-.003906c-3.714843-4.085938-10.039062-4.382813-14.125-.667969-4.085937 3.714844-4.386718 10.039062-.671874 14.125 1.972656 2.171875 4.683593 3.277344 7.402343 3.277344zm0 0"/></svg>