<svg id="Capa_1" enable-background="new 0 0 512 512" height="512" viewBox="0 0 512 512" width="512" xmlns="http://www.w3.org/2000/svg"><g id="XMLID_680_"><path id="XMLID_2559_" d="m202 161.938h-120c-39.765 0-72 32.236-72 72v222.062c0 25.405 20.595 46 46 46h172c25.405 0 46-20.595 46-46v-222.062c0-39.765-32.236-72-72-72z" fill="#a0c8ff"/><g id="XMLID_1778_"><path id="XMLID_1779_" d="m262.848 85.5c-6.142 0-12.284-2.343-16.971-7.029l-20.47-20.471h-134.406c-13.255 0-24-10.745-24-24s10.745-24 24-24h144.347c6.365 0 12.47 2.528 16.971 7.029l27.5 27.5c9.373 9.373 9.373 24.569 0 33.941-4.687 4.687-10.829 7.03-16.971 7.03z" fill="#fff"/></g><path id="XMLID_2580_" d="m180.635 113.938h-77.271c-8.486 0-15.365 6.879-15.365 15.365v32.635h108v-32.635c.001-8.487-6.878-15.365-15.364-15.365z" fill="#a0c8ff"/><path id="XMLID_2579_" d="m118 58h48v55.938h-48z" fill="#a0c8ff"/><g id="XMLID_1770_"><path id="XMLID_1771_" d="m375.271 189.606c-14.485 14.484-37.969 14.484-52.453 0-13.284-13.284-14.538-34.402-2.92-49.164l29.146-37.035 29.147 37.035c11.618 14.762 10.364 35.88-2.92 49.164z" fill="#dfedff"/></g><path id="XMLID_2324_" d="m204 309.969h-40v-40h-44v40h-40v44h40v40h44v-40h40z" fill="#fff"/><ellipse id="XMLID_2278_" cx="398.108" cy="350.113" fill="#ff9171" rx="68.416" ry="68.416" transform="matrix(.975 -.223 .223 .975 -68.102 97.691)"/><g id="XMLID_26_"><path id="XMLID_666_" d="m349.045 210.469c12.578 0 24.403-4.898 33.298-13.792 16.854-16.854 18.448-43.689 3.707-62.42l-29.146-37.036c-1.896-2.409-4.793-3.815-7.858-3.815s-5.962 1.406-7.858 3.815l-29.146 37.036c-14.741 18.731-13.147 45.565 3.707 62.419 8.892 8.895 20.717 13.793 33.296 13.793zm-21.288-63.843 21.288-27.05 21.288 27.05c8.48 10.776 7.563 26.213-2.133 35.909-5.117 5.117-11.919 7.935-19.155 7.935s-14.039-2.818-19.155-7.935c-9.697-9.697-10.613-25.134-2.133-35.909z"/><path id="XMLID_669_" d="m164 259.969h-44c-5.523 0-10 4.477-10 10v30h-30c-5.523 0-10 4.477-10 10v44c0 5.523 4.477 10 10 10h30v30c0 5.523 4.477 10 10 10h44c5.523 0 10-4.477 10-10v-30h30c5.523 0 10-4.477 10-10v-44c0-5.523-4.477-10-10-10h-30v-30c0-5.523-4.477-10-10-10zm30 60v24h-30c-5.523 0-10 4.477-10 10v30h-24v-30c0-5.523-4.477-10-10-10h-30v-24h30c5.523 0 10-4.477 10-10v-30h24v30c0 5.523 4.477 10 10 10z"/><path id="XMLID_672_" d="m502 340.113h-26.135c-1.81-14.148-7.397-27.124-15.726-37.888l35.563-35.563c3.905-3.905 3.905-10.237 0-14.143-3.905-3.905-10.237-3.905-14.143 0l-35.563 35.563c-10.764-8.329-23.74-13.916-37.888-15.726v-26.135c0-5.523-4.477-10-10-10s-10 4.477-10 10v26.135c-14.148 1.81-27.124 7.397-37.888 15.726l-13.457-13.457c-3.905-3.905-10.237-3.905-14.143 0-3.905 3.905-3.905 10.237 0 14.143l13.457 13.457c-8.329 10.764-13.916 23.74-15.726 37.888h-36.351v-106.175c0-43.873-34.636-79.805-78-81.898v-22.737c0-13.986-11.378-25.365-25.365-25.365h-4.635v-35.938h45.265l17.541 17.542c6.422 6.421 14.96 9.958 24.042 9.958 9.081 0 17.619-3.537 24.042-9.958 6.422-6.422 9.959-14.96 9.959-24.042s-3.537-17.62-9.958-24.042l-27.5-27.5c-6.423-6.421-14.961-9.958-24.043-9.958h-144.348c-18.747 0-34 15.252-34 34s15.252 34 34 34h17v35.938h-4.635c-13.987 0-25.365 11.378-25.365 25.364v22.737c-43.364 2.094-78 38.025-78 81.898v53.032c0 5.523 4.477 10 10 10s10-4.477 10-10v-53.032c0-34.187 27.813-62 62-62h120c34.187 0 62 27.813 62 62v222.063c0 19.851-16.149 36-36 36h-172c-19.851 0-36-16.149-36-36v-79.031c0-5.523-4.477-10-10-10s-10 4.477-10 10v79.031c0 30.878 25.122 56 56 56h172c30.878 0 56-25.122 56-56v-95.887h36.352c1.81 14.148 7.396 27.124 15.726 37.888l-19.539 19.539c-3.905 3.905-3.905 10.237 0 14.142 1.953 1.953 4.512 2.929 7.071 2.929s5.119-.976 7.071-2.929l19.539-19.539c10.764 8.329 23.74 13.915 37.888 15.726v34.131c0 5.523 4.477 10 10 10s10-4.477 10-10v-34.131c14.148-1.81 27.124-7.397 37.889-15.726l11.303 11.303c1.953 1.953 4.512 2.929 7.071 2.929s5.119-.976 7.071-2.929c3.905-3.905 3.905-10.237 0-14.143l-11.303-11.303c8.329-10.764 13.916-23.74 15.726-37.888h26.135c5.523 0 10-4.477 10-10 0-5.522-4.477-9.999-10-9.999zm-425-306.113c0-7.72 6.28-14 14-14h144.347c3.74 0 7.255 1.456 9.899 4.101l27.501 27.5c2.644 2.644 4.1 6.16 4.1 9.899s-1.457 7.255-4.1 9.899c-2.645 2.644-6.161 4.101-9.9 4.101s-7.255-1.456-9.9-4.1l-20.47-20.471c-1.874-1.875-4.417-2.929-7.07-2.929h-134.407c-7.719 0-14-6.28-14-14zm51 34h28v35.938h-28zm-30 83.938v-22.635c0-2.958 2.407-5.365 5.365-5.365h77.271c2.958 0 5.365 2.407 5.365 5.365v22.635zm300.108 256.591c-32.211 0-58.416-26.205-58.416-58.416s26.205-58.417 58.416-58.417 58.417 26.206 58.417 58.417-26.206 58.416-58.417 58.416z"/><path id="XMLID_695_" d="m390.34 317.11c-2.63 0-5.21 1.07-7.07 2.93s-2.93 4.44-2.93 7.07c0 2.64 1.07 5.21 2.93 7.07 1.86 1.87 4.44 2.93 7.07 2.93s5.21-1.06 7.07-2.93c1.86-1.86 2.93-4.44 2.93-7.07s-1.07-5.21-2.93-7.07-4.44-2.93-7.07-2.93z"/><path id="XMLID_696_" d="m423.84 343.61c-2.64 0-5.21 1.07-7.07 2.93-1.87 1.86-2.93 4.44-2.93 7.07 0 2.64 1.06 5.21 2.93 7.07 1.86 1.86 4.43 2.93 7.07 2.93 2.63 0 5.21-1.07 7.07-2.93s2.93-4.43 2.93-7.07c0-2.63-1.07-5.21-2.93-7.07s-4.44-2.93-7.07-2.93z"/><path id="XMLID_697_" d="m382.84 362.11c-2.63 0-5.21 1.07-7.07 2.93-1.87 1.86-2.93 4.44-2.93 7.07 0 2.64 1.06 5.21 2.93 7.07 1.86 1.87 4.44 2.93 7.07 2.93s5.21-1.06 7.07-2.93c1.86-1.86 2.93-4.44 2.93-7.07s-1.07-5.21-2.93-7.07-4.44-2.93-7.07-2.93z"/><path id="XMLID_698_" d="m10 341.97c2.63 0 5.21-1.07 7.07-2.93s2.93-4.44 2.93-7.07-1.07-5.21-2.93-7.07-4.44-2.93-7.07-2.93-5.21 1.07-7.07 2.93-2.93 4.44-2.93 7.07 1.07 5.21 2.93 7.07 4.44 2.93 7.07 2.93z"/></g></g></svg>