<?xml version="1.0" encoding="iso-8859-1"?>
<!-- Generator: Adobe Illustrator 19.0.0, SVG Export Plug-In . SVG Version: 6.00 Build 0)  -->
<svg version="1.1" id="Capa_1" xmlns="http://www.w3.org/2000/svg" xmlns:xlink="http://www.w3.org/1999/xlink" x="0px" y="0px"
	 viewBox="0 0 512.001 512.001" style="enable-background:new 0 0 512.001 512.001;" xml:space="preserve">
<path style="fill:#ED5A5A;" d="M67.18,28.236c0,23.336,0,437.004,0,457.195c0.255,0,4.274,0,4.17,0c40.618,0,326.644,0,373.467,0
	c0-23.336,0-437.004,0-457.195C444.817,28.236,67.18,28.236,67.18,28.236z"/>
<g>
	<path style="fill:#E04B4B;" d="M67.18,28.236c0,23.336,0,437.004,0,457.195c0.137,0,4.459,0,4.184,0c12.019,0,20.928,0,32.91,0
		c0-18.938,0-375.464,0-394.631V28.236C104.275,28.236,67.18,28.236,67.18,28.236z"/>
	<path style="fill:#E04B4B;" d="M426.237,319.907c0.272,0,8.518,0,8,0c0.671,0,6.513,0,6.411,0c0.103,0,4.272,0,4.169,0v-30.906
		c-33.45,0-101.351,0-146.331,0l0,0c-0.161,0-9.644,0-9.054,0c-0.101,0-7.961,0-7.748,0c-0.177,0-8.924,0-8.823,0
		c-0.225,0-87.919,0-86.004,0c-8.658,0-63.779,0-72.83,0l0,0c-0.184,0-3.967,0-3.867,0c-1.627,0-44.459,0-42.982,0v30.906
		C69.812,319.907,446.425,319.907,426.237,319.907z"/>
</g>
<path style="fill:#D14242;" d="M104.275,319.907v-30.906c-0.587,0-38.814,0-37.094,0v30.906
	C78.976,319.907,92.302,319.907,104.275,319.907z"/>
<path style="fill:#E04B4B;" d="M70.195,61.51c0.169,0,3.85,0,3.747,0c0.147,0,8.049,0,7.819,0c5.097,0,8.589,0,13.676,0h2.389h0.455
	h1.156h2.344h0.246h0.692h0.718h2.591h1.156h2.597h0.066h0.18h0.976h2.645h0.381h0.976h0.18h2.663h0.063h1.092h2.344h0.3h1.157h0.2
	h0.063h0.455h2.389h2.05h1.386h0.518h0.939h0.263h0.455h1.692h0.899h0.909h0.247h0.692h1.905h1.404h1.944h0.063h0.454h0.382h0.909
	h0.066h0.18c8.234,0,57.315,0,64.231,0h1.387h0.564h1.156h0.895h1.387h0.063h0.455h0.103h0.381h0.153h0.301h0.063h0.154h0.046h0.335
	h0.558h2.344h0.718h0.247h0.692h0.063h1.387h0.455h0.103h0.899h0.154h0.821h1.435h0.335h0.692h0.718h0.247h0.755h1.589h0.558h0.598
	h1.074h1.435h0.154h0.181h0.822h0.153h0.564h2.08h0.381h0.558h0.063h0.354h0.181h0.822h0.454h1.386h0.063h0.558h0.382h0.153h0.564
	h2.08h0.822h0.18h0.155h0.2h0.064h0.455h0.103h0.381h0.454h0.063c24.732,0,144.481,0,168.907,0c-0.101,0,21.727,0,28.256,0V28.236
	c-12.58,0-125.807,0-146.331,0l0,0c-0.332,0-7.803,0-7.442,0c-21.911,0-87.469,0-109.342,0l0,0c-0.215,0-4.457,0-4.335,0
	c-0.101,0-55.421,0-53.843,0c-0.386,0-16.734,0-16.339,0c-0.456,0-5.415,0-5.157,0c-8.231,0-26.764,0-34.847,0V61.51
	C67.369,61.51,70.306,61.51,70.195,61.51z"/>
<path style="fill:#D14242;" d="M70.195,61.51c0.169,0,3.85,0,3.747,0c0.147,0,8.049,0,7.819,0c5.097,0,8.589,0,13.676,0h2.389h0.455
	h1.156h2.344h0.247h0.692h0.718h0.837V28.236c-0.139,0-2.369,0-2.247,0c-8.231,0-26.764,0-34.847,0V61.51
	C67.369,61.51,70.306,61.51,70.195,61.51z"/>
<path style="fill:#66CDED;" d="M398.08,348.31h-57.858c-5.304,0-9.644,4.339-9.644,9.644v67.607c0,5.303,4.339,9.643,9.644,9.643
	h57.859c5.303,0,9.644-4.339,9.644-9.643v-67.607C407.724,352.649,403.384,348.31,398.08,348.31z"/>
<path style="fill:#7F7E7D;" d="M407.724,425.56v-17.362c-0.218,0-9.505,0-9.374,0h-0.381h-1.156h-2.727h-3.736h-0.381h-0.776h-0.263
	h-0.455h-0.381h-2.008h-2.05h-1.904h-0.382h-0.558h-0.263h-0.455h-0.381h-2.21h-0.909h-0.247h-0.134h-0.558h-1.904h-0.382h-1.022
	h-2.008h-0.454h-0.381h-0.909h-0.247h-0.134h-2.21h-0.558h-0.717h-0.381h-2.008h-0.454h-0.381h-1.039h-2.079h-0.381h-0.558h-0.717
	h-0.381h-0.776h-1.434h-1.673h-2.079h-0.381h-0.44h-1.053h-0.381h-0.558h-1.434h-1.875h-2.008h-0.692h-1.053h-0.381h-1.875h-0.335
	h-0.558h-0.263h-0.456h-0.381h-2.008h-0.895h-0.598h-0.558h-1.904h-0.046h-0.053v17.362c0,5.303,4.339,9.643,9.644,9.643h0.666
	h1.053h0.692h0.063h1.945h0.899h0.976h1.434h0.939h0.518h0.535h0.755h0.067h2.079h1.673h0.047h1.387h1.157h0.299h0.418h0.558h0.381
	h2.079h0.064h1.357h0.3h0.155h2.008h0.381h0.717h0.558h2.344h0.18h0.067h0.909h0.381h0.454h0.063h1.945h1.404h1.904h0.692h0.247
	h0.909h0.899h1.692h0.455h0.263h0.939h0.518h1.387h2.05h2.389h0.455h0.063h0.2h1.157h0.3h2.344h1.092h0.063h2.663
	c0.101,0,1.257,0,1.156,0h0.112C403.384,435.203,407.724,430.864,407.724,425.56z"/>
<path style="fill:#727272;" d="M349.865,425.56v-17.362h-0.977h-0.381h-0.558h-1.434h-1.875h-2.008h-0.692h-1.053h-0.381h-1.875
	h-0.335h-0.558h-0.263h-0.452h-0.381h-2.008h-0.895h-0.598h-0.558h-1.904h-0.046h-0.053v17.362c0,5.303,4.339,9.643,9.644,9.643
	h0.666h1.053h0.692h0.063h1.945h0.899h0.976h1.434h0.939h0.518h0.535h0.755h0.067h2.08h1.673h0.047h1.387h1.157h0.299h0.418h0.558
	h0.381h0.745C354.204,435.203,349.865,430.864,349.865,425.56z"/>
<path style="fill:#7F7E7D;" d="M284.929,348.31h-57.86c-5.304,0-9.644,4.339-9.644,9.644v7.936c0,34.583,0,85.076,0,119.541h77.146
	c0-34.492,0-85.041,0-119.541v-7.936C294.572,352.649,290.232,348.31,284.929,348.31z"/>
<path style="fill:#727272;" d="M244.535,365.889v-7.936c0-5.303,4.339-9.644,9.644-9.644H227.07c-5.304,0-9.644,4.339-9.644,9.644
	v7.936c0,34.583,0,85.076,0,119.541h27.109C244.535,450.938,244.535,400.389,244.535,365.889z"/>
<path style="fill:#56BAE2;" d="M369.152,408.199V348.31h-28.93c-5.304,0-9.644,4.339-9.644,9.644v50.245H369.152z"/>
<path style="fill:#4AA5D3;" d="M359.508,348.31h-19.286c-5.304,0-9.644,4.339-9.644,9.644v50.245h19.286v-50.245
	C349.865,352.649,354.204,348.31,359.508,348.31z"/>
<g>
	<path style="fill:#E6E6E6;" d="M461.939,488.693c-1.102-6.38-6.649-11.199-13.291-11.199c-0.707,0-2.974,0-2.844,0
		c-0.1,0-279.454,0-274.314,0c-0.109,0-4.391,0-4.133,0c-0.197,0-10.087,0-9.876,0c-0.197,0-7.542,0-7.367,0
		c-2.114,0-84.82,0-79.54,0c-0.103,0-4.17,0-4.001,0c-0.707,0-2.973,0-2.843,0c-0.1,0-0.481,0-0.381,0
		c-6.792,0-12.517,5.057-13.383,11.8c-1.032,8.225,5.377,15.206,13.383,15.206c1.425,0,4.303,0,4.2,0c0.148,0,3.935,0,3.8,0
		c0.151,0,6.671,0,6.41,0c0.154,0,4.284,0,4.181,0c0.108,0,1.977,0,1.875,0c0.204,0,6.048,0,5.945,0c0.101,0,0.619,0,0.518,0
		c0.101,0,1.257,0,1.156,0c0.143,0,3.416,0,3.283,0c4.043,0,369.288,0,349.728,0c0.16,0,3.953,0,3.819,0h0.382
		C457.015,504.5,463.403,496.932,461.939,488.693z"/>
	<path style="fill:#E6E6E6;" d="M461.685,275.938c-1.531-5.776-6.778-10.041-13.036-10.041h-0.382c-0.346,0-2.984,0-2.843,0
		c-0.806,0-4.179,0-4.001,0c-0.101,0-1.257,0-1.156,0c-17.23,0-26.699,0-46.18,0c-14.771,0-24.732,0-39.571,0h-1.673h-2.08h-0.381
		h-0.441h-1.053h-0.382h-0.558h-1.434c-13.053,0-23.112,0-35.969,0c-1.345,0-257.121,0-246.814,0h-0.381
		c-6.258,0-11.507,4.264-13.038,10.042c-2.289,8.495,4.126,16.963,13.038,16.963c0.707,0,2.974,0,2.843,0
		c20.855,0,400.793,0,378.254,0c0.16,0,3.953,0,3.819,0h0.382C457.591,292.903,464.016,284.332,461.685,275.938z"/>
	<path style="fill:#E6E6E6;" d="M461.939,190.368c-1.102-6.38-6.649-11.198-13.291-11.198c-0.806,0-3.404,0-3.225,0
		c-0.806,0-4.179,0-4.001,0c-0.101,0-1.257,0-1.156,0c-24.699,0-369.479,0-349.986,0c-0.258,0-6.742,0-6.463,0
		c-0.243,0-10.323,0-9.876,0c-0.179,0-2.72,0-2.591,0c-0.101,0-1.257,0-1.156,0c-0.806,0-4.179,0-4.001,0c-0.194,0-2.576,0-2.462,0
		h-0.381c-7.349,0-13.14,5.838-13.487,12.85c-0.367,7.7,5.766,14.155,13.487,14.155c0.707,0,2.974,0,2.843,0
		c15.508,0,55.399,0,71.674,0h1.404h1.944h0.063c0.316,0,4.549,0,4.336,0h0.558h0.718h0.381c0.258,0,6.065,0,5.962,0
		c0.101,0,81.391,0,79.922,0c0.101,0,1.64,0,1.539,0c11.873,0,111.882,0,127.568,0h0.3h0.155h2.007h0.381h0.717h0.558h2.344h0.18
		h0.067h0.909h0.381h0.455h0.063h1.944h1.405h1.904h0.692h0.247h0.909h0.899h1.692h0.454h0.263h0.939h0.517h1.387h2.05h2.389h0.454
		h0.063h0.2c0.471,0,39.627,0,38.988,0c0.108,0,1.989,0,1.875,0c0.314,0,4.304,0,4.181,0c0.671,0,6.513,0,6.411,0
		c0.133,0,3.903,0,3.799,0c0.16,0,3.953,0,3.819,0h0.382C457.015,206.174,463.403,198.607,461.939,190.368z"/>
	<path style="fill:#E6E6E6;" d="M462.133,20.668C461.91,13.233,455.885,7.5,448.648,7.5c-0.707,0-2.974,0-2.844,0
		c-0.103,0-4.17,0-4.001,0c-0.101,0-1.256,0-1.156,0c-0.291,0-2.694,0-2.591,0c-0.207,0-10.489,0-9.876,0c-0.141,0-6.587,0-6.463,0
		c-0.101,0-1.257,0-1.156,0c-0.188,0-8.37,0-8,0c-0.1,0-368.922,0-348.831,0h-0.381c-6.258,0-11.507,4.264-13.038,10.042
		c-2.289,8.496,4.126,16.963,13.038,16.963c0.707,0,2.974,0,2.843,0c0.101,0,385.08,0,361.988,0c0.108,0,1.989,0,1.875,0
		c0.314,0,4.304,0,4.181,0c0.671,0,6.513,0,6.411,0c0.133,0,3.903,0,3.799,0c0.16,0,3.953,0,3.819,0h0.382
		C456.023,34.505,462.287,28.529,462.133,20.668z"/>
</g>
<g>
	<path style="fill:#CCCCCC;" d="M91.061,18.7c1.102-6.381,6.647-11.2,13.292-11.2c-0.275,0-8.982,0-8.535,0
		c-0.265,0-33.387,0-32.087,0c-0.1,0-0.481,0-0.381,0c-7.569,0-13.502,6.199-13.502,13.503c0,7.457,6.044,13.503,13.502,13.503
		c1.425,0,4.303,0,4.2,0c0.186,0,15.176,0,14.211,0c0.101,0,1.257,0,1.156,0c0.195,0,2.944,0,2.843,0c0.252,0,4.202,0,4.064,0
		c0.101,0,1.193,0,1.093,0c0.101,0,1,0,0.899,0c1.185,0,3.722,0,3.62,0c3.076,0,9.172,0,8.916,0
		C96.004,34.505,89.614,26.985,91.061,18.7z"/>
	<path style="fill:#CCCCCC;" d="M91.315,189.21c1.531-5.777,6.779-10.042,13.038-10.042c-0.113,0-5.225,0-4.916,0
		c-0.152,0-7.914,0-7.619,0c-0.103,0-1.671,0-1.537,0c-0.258,0-6.742,0-6.463,0c-0.243,0-10.323,0-9.876,0c-0.179,0-2.72,0-2.591,0
		c-0.101,0-1.257,0-1.156,0c-0.806,0-4.179,0-4.001,0c-0.194,0-2.576,0-2.462,0h-0.381c-7.35,0-13.14,5.838-13.487,12.85
		c-0.369,7.698,5.767,14.155,13.487,14.155c0.707,0,2.973,0,2.843,0c14.338,0,23.871,0,38.159,0
		C96.622,206.174,89.014,197.765,91.315,189.21z"/>
	<path style="fill:#CCCCCC;" d="M90.866,278.748c0.345-6.978,6.107-12.85,13.487-12.85c-0.846,0-42.58,0-40.621,0H63.35
		c-6.639,0-12.189,4.814-13.292,11.2c-1.453,8.316,4.975,15.805,13.292,15.805c0.707,0,2.973,0,2.843,0c10.973,0,19.781,0,38.159,0
		C96.621,292.903,90.498,286.436,90.866,278.748z"/>
	<path style="fill:#CCCCCC;" d="M91.061,488.694c1.102-6.38,6.647-11.2,13.292-11.2c-3.362,0-35.282,0-33.777,0
		c-0.103,0-4.17,0-4.001,0c-0.707,0-2.973,0-2.843,0c-0.1,0-0.481,0-0.381,0c-6.834,0-12.523,5.101-13.383,11.8
		c-1.034,8.221,5.377,15.206,13.383,15.206c0.707,0,2.973,0,2.843,0c0.192,0,4.261,0,4.001,0c0.169,0,3.85,0,3.747,0
		c0.147,0,8.049,0,7.82,0c0.101,0,1.257,0,1.156,0c0.196,0,2.944,0,2.843,0c0.252,0,4.202,0,4.064,0c0.101,0,1.193,0,1.092,0
		c0.101,0,1,0,0.899,0c1.185,0,3.722,0,3.62,0c3.076,0,9.171,0,8.916,0C96.004,504.5,89.614,496.979,91.061,488.694z"/>
</g>
<path style="fill:#66CDED;" d="M171.712,348.31h-57.86c-5.304,0-9.643,4.339-9.643,9.644v67.607c0,5.303,4.339,9.643,9.643,9.643
	h57.86c5.303,0,9.644-4.339,9.644-9.643v-67.607C181.355,352.649,177.016,348.31,171.712,348.31z"/>
<path style="fill:#7F7E7D;" d="M181.355,425.56v-17.362h-1.754h-1.156h-2.596h-0.247h-0.134h-3.485h-0.381h-1.156h-2.727h-3.736
	h-0.381h-0.776h-0.263h-0.455h-0.381h-2.008h-2.05h-1.904h-0.382h-0.558h-0.263h-0.455h-0.381h-2.21h-0.909h-0.247h-0.134h-0.558
	h-1.904h-0.382h-1.022h-2.008h-0.455h-0.381h-0.909h-0.247h-0.134h-2.21c-13.324,0-22.407,0-35.804,0v17.362
	c0,5.303,4.339,9.643,9.643,9.643h0.666c0.103,0,1.853,0,1.745,0c0.227,0,2.11,0,2.008,0c0.108,0,1.989,0,1.874,0
	c0.182,0,2.504,0,2.373,0c0.101,0,1.154,0,1.053,0c0.101,0,0.923,0,0.822,0c0.155,0,3.888,0,3.752,0c0.101,0,1.535,0,1.434,0
	c0.101,0,1.557,0,1.456,0c0.101,0,1.076,0,0.976,0c0.258,0,2.564,0,2.461,0c0.101,0,1.521,0,1.42,0c0.101,0,0.555,0,0.455,0
	c0.266,0,2.5,0,2.389,0c0.101,0,1.376,0,1.275,0c0.172,0,2.667,0,2.524,0c0.101,0,1.076,0,0.976,0h0.381h0.455h0.063h1.945h1.404
	h1.904h0.692h0.247h0.909h0.899h1.692h0.455h0.263h0.939h0.518h1.387h2.05h2.389h0.455h0.063h0.2h1.157h0.3h2.344h1.092h0.063h2.663
	h0.18h0.976h0.112C177.016,435.203,181.355,430.864,181.355,425.56z"/>
<path style="fill:#727272;" d="M123.496,425.56v-17.362c-7.206,0-12.069,0-19.286,0v17.362c0,5.303,4.339,9.643,9.643,9.643
	c0.101,0,1.82,0,1.719,0c0.101,0,0.856,0,0.755,0c0.137,0,3.004,0,2.844,0c0.127,0,2.51,0,2.41,0c0.101,0,1.557,0,1.457,0
	c0.101,0,1.391,0,1.29,0c0.108,0,2.249,0,2.146,0c0.174,0,1.823,0,1.72,0c0.206,0,2.682,0,2.544,0c0.101,0,0.818,0,0.717,0
	c0.101,0,1.04,0,0.939,0h0.745C127.835,435.203,123.496,430.864,123.496,425.56z"/>
<path style="fill:#56BAE2;" d="M142.783,408.199V348.31h-28.93c-5.304,0-9.643,4.339-9.643,9.644v50.245H142.783z"/>
<path style="fill:#4AA5D3;" d="M133.139,348.31h-19.286c-5.304,0-9.643,4.339-9.643,9.644v50.245h19.286v-50.245
	C123.496,352.649,127.835,348.31,133.139,348.31z"/>
<path style="fill:#66CDED;" d="M398.08,92.277h-57.858c-5.304,0-9.644,4.339-9.644,9.644v67.607c0,5.303,4.339,9.644,9.644,9.644
	h57.859c5.303,0,9.644-4.339,9.644-9.644V101.92C407.724,96.616,403.384,92.277,398.08,92.277z"/>
<path style="fill:#7F7E7D;" d="M407.724,169.526v-17.362c-13.614,0-42.423,0-51.774,0h-1.434h-1.673h-2.079h-0.381h-0.44h-1.053
	h-0.381h-0.558h-1.434h-1.875h-2.008h-0.692h-1.053h-0.381h-1.875h-0.335h-0.558h-0.263h-0.454h-0.381h-2.008h-0.895h-0.598h-0.558
	h-1.904h-0.046h-0.053v17.362c0,5.303,4.339,9.644,9.644,9.644h0.666c0.103,0,1.853,0,1.745,0c0.228,0,2.111,0,2.008,0
	c0.108,0,1.989,0,1.875,0c0.182,0,2.504,0,2.373,0c0.101,0,1.154,0,1.053,0c0.101,0,0.922,0,0.822,0c0.155,0,3.888,0,3.752,0
	c0.101,0,1.535,0,1.434,0c0.101,0,1.557,0,1.456,0c0.101,0,1.076,0,0.976,0c0.258,0,2.564,0,2.461,0c0.101,0,1.521,0,1.421,0
	c0.101,0,0.555,0,0.454,0c0.266,0,2.5,0,2.389,0c1.122,0,24.557,0,23.367,0c0.101,0,0.618,0,0.518,0c0.101,0,1.458,0,1.357,0
	c0.171,0,2.745,0,2.644,0c0.101,0,1.256,0,1.156,0c0.264,0,2.964,0,2.843,0c0.101,0,1.188,0,1.087,0
	C403.384,179.169,407.724,174.83,407.724,169.526z"/>
<path style="fill:#727272;" d="M349.865,169.526v-17.362h-0.977h-0.381h-0.558h-1.434h-1.875h-2.008h-0.692h-1.053h-0.381h-1.875
	h-0.335h-0.558h-0.263h-0.452h-0.381h-2.008h-0.895h-0.598h-0.558h-1.904h-0.046h-0.053v17.362c0,5.303,4.339,9.643,9.644,9.643
	c0.101,0,1.82,0,1.719,0c0.101,0,0.855,0,0.755,0c0.137,0,3.004,0,2.844,0c0.127,0,2.51,0,2.41,0c0.101,0,1.557,0,1.456,0
	c0.101,0,1.391,0,1.29,0c0.108,0,2.249,0,2.146,0c0.175,0,1.823,0,1.72,0c0.206,0,2.682,0,2.544,0c0.101,0,0.818,0,0.717,0
	c0.101,0,1.04,0,0.939,0h0.745C354.204,179.169,349.865,174.83,349.865,169.526z"/>
<path style="fill:#56BAE2;" d="M369.152,152.164V92.277h-28.93c-5.304,0-9.644,4.339-9.644,9.644v50.245h38.573V152.164z"/>
<path style="fill:#4AA5D3;" d="M359.508,92.276h-19.286c-5.304,0-9.644,4.339-9.644,9.644v50.245h19.286v-50.245
	C349.865,96.616,354.204,92.276,359.508,92.276z"/>
<path style="fill:#66CDED;" d="M284.929,92.277H227.07c-5.304,0-9.644,4.339-9.644,9.644v67.607c0,5.303,4.339,9.644,9.644,9.644
	h57.859c5.303,0,9.644-4.339,9.644-9.644V101.92C294.572,96.616,290.232,92.277,284.929,92.277z"/>
<path style="fill:#7F7E7D;" d="M294.572,169.526v-17.362h-1.754h-1.156h-2.596h-0.247h-0.134H285.2h-0.381h-1.156h-2.727h-3.736
	h-0.381h-0.776h-0.263h-0.455h-0.381h-2.008h-2.05h-1.904h-0.382h-0.558h-0.263h-0.455h-0.381h-2.21h-0.909h-0.247h-0.134h-0.558
	h-1.904h-0.382h-1.022h-2.008h-0.454h-0.381h-0.909h-0.247h-0.134h-2.21h-0.558h-0.717h-0.381h-2.008h-0.454h-0.381h-1.039h-2.079
	h-0.381h-0.558h-0.717h-0.381h-0.776h-1.434h-1.673h-2.079h-0.381h-0.44h-1.053h-0.381h-0.558h-1.434h-1.875h-2.008h-0.692h-1.053
	h-0.381h-1.875h-0.335h-0.558h-0.263h-0.454h-0.381h-2.008h-0.895h-0.598h-0.558h-1.904h-0.046h-0.053v17.362
	c0,5.303,4.339,9.644,9.644,9.644c0.101,0,1.82,0,1.719,0c0.101,0,0.856,0,0.755,0c0.137,0,3.004,0,2.844,0c0.127,0,2.51,0,2.41,0
	c0.101,0,1.557,0,1.456,0c0.101,0,1.391,0,1.29,0c0.108,0,2.249,0,2.146,0c0.175,0,1.823,0,1.72,0c0.206,0,2.682,0,2.544,0
	c0.101,0,0.818,0,0.717,0c0.101,0,1.04,0,0.939,0c0.114,0,2.246,0,2.143,0c0.114,0,1.76,0,1.657,0c0.134,0,2.265,0,2.163,0
	c0.101,0,1.199,0,1.099,0c0.108,0,3.007,0,2.902,0c0.1,0,0.347,0,0.247,0c0.101,0,1.391,0,1.29,0c0.101,0,0.618,0,0.517,0
	c0.192,0,3.497,0,3.349,0c0.401,0,2.741,0,2.596,0c0.101,0,1.257,0,1.156,0c0.422,0,2.729,0,2.591,0c0.101,0,0.818,0,0.717,0
	c0.101,0,1.558,0,1.457,0c0.181,0,3.561,0,3.437,0c0.13,0,3.022,0,2.844,0c0.1,0,0.363,0,0.263,0c0.101,0,1.558,0,1.457,0
	c0.164,0,3.615,0,3.437,0c0.253,0,2.871,0,2.727,0c0.101,0,1.257,0,1.156,0h0.112C290.232,179.169,294.572,174.83,294.572,169.526z"
	/>
<path style="fill:#727272;" d="M236.713,169.526v-17.362h-0.977h-0.381h-0.558h-1.434h-1.875h-2.008h-0.692h-1.053h-0.381h-1.875
	h-0.335h-0.558h-0.263h-0.454h-0.381h-2.008h-0.895h-0.598h-0.558h-1.904h-0.046h-0.053v17.362c0,5.303,4.339,9.643,9.643,9.643
	c0.118,0,2.554,0,2.411,0c0.228,0,2.111,0,2.008,0c0.108,0,1.989,0,1.875,0c0.182,0,2.504,0,2.373,0c0.101,0,1.153,0,1.053,0
	c0.101,0,0.922,0,0.822,0c0.156,0,3.888,0,3.753,0c0.101,0,1.535,0,1.434,0c0.101,0,1.557,0,1.456,0c0.101,0,1.076,0,0.976,0
	c0.101,0,1.227,0,1.126,0C241.052,179.169,236.713,174.83,236.713,169.526z"/>
<path style="fill:#56BAE2;" d="M255.999,152.164V92.277h-28.93c-5.304,0-9.644,4.339-9.644,9.644v50.245h38.573V152.164z"/>
<path style="fill:#4AA5D3;" d="M246.356,92.276H227.07c-5.304,0-9.643,4.339-9.643,9.644v50.245h19.286v-50.245
	C236.713,96.616,241.052,92.276,246.356,92.276z"/>
<path style="fill:#66CDED;" d="M171.777,92.277h-57.858c-5.304,0-9.644,4.339-9.644,9.644v67.607c0,5.303,4.339,9.644,9.644,9.644
	h57.858c5.303,0,9.644-4.339,9.644-9.644V101.92C181.42,96.616,177.08,92.277,171.777,92.277z"/>
<path style="fill:#7F7E7D;" d="M181.42,169.526v-17.362h-1.754h-1.156h-2.596h-0.247h-0.134h-3.485h-0.381h-1.156h-2.726h-3.736
	h-0.381h-0.776h-0.263h-0.455h-0.381h-2.008h-2.05h-1.904h-0.382h-0.558h-0.263h-0.455h-0.381h-2.21h-0.909h-0.247h-0.134h-0.558
	h-1.904h-0.382h-1.022h-2.008h-0.454h-0.381h-0.909h-0.247h-0.134h-2.21h-0.558h-0.717h-0.381h-2.008h-0.454h-0.381h-1.039h-2.079
	h-0.381h-0.558h-0.717h-0.381h-0.776h-1.434h-1.673h-2.079h-0.381h-0.44h-1.053h-0.381h-0.558h-1.434h-1.875h-2.008h-0.692h-1.053
	h-0.381h-1.875h-0.335h-0.558h-0.263h-0.454h-0.381h-2.008h-0.895h-0.598h-0.558h-1.904h-0.046h-0.053v17.362
	c0,5.303,4.339,9.644,9.644,9.644c0.118,0,2.554,0,2.411,0c0.228,0,2.11,0,2.008,0c0.108,0,1.989,0,1.875,0c0.182,0,2.504,0,2.373,0
	c0.101,0,1.153,0,1.053,0c0.101,0,0.923,0,0.822,0c0.163,0,7.275,0,7.061,0c0.671,0,3.18,0,3.019,0c0.101,0,1.521,0,1.421,0
	c0.218,0,7.72,0,7.619,0c0.761,0,27.962,0,26.931,0c0.101,0,1.257,0,1.156,0h0.112C177.08,179.169,181.42,174.83,181.42,169.526z"/>
<path style="fill:#727272;" d="M123.561,169.526v-17.362h-0.977h-0.381h-0.558h-1.434h-1.875h-2.008h-0.692h-1.053h-0.381h-1.875
	h-0.335h-0.558h-0.263h-0.454h-0.381h-2.008h-0.895h-0.598h-0.558h-1.904h-0.046h-0.053v17.362c0,5.303,4.339,9.643,9.644,9.643
	c0.118,0,2.554,0,2.411,0c0.228,0,2.11,0,2.008,0c0.108,0,1.989,0,1.875,0c0.182,0,2.504,0,2.373,0c0.101,0,1.153,0,1.053,0
	c0.101,0,0.922,0,0.822,0c0.163,0,7.275,0,7.061,0c0.103,0,1.785,0,1.684,0C127.9,179.169,123.561,174.83,123.561,169.526z"/>
<path style="fill:#56BAE2;" d="M142.847,152.164V92.277h-28.929c-5.304,0-9.644,4.339-9.644,9.644v50.245h38.572V152.164z"/>
<path style="fill:#4AA5D3;" d="M133.204,92.276h-19.286c-5.304,0-9.644,4.339-9.644,9.644v50.245h19.286v-50.245
	C123.561,96.616,127.9,92.276,133.204,92.276z"/>
<path d="M398.065,442.704c9.453,0,17.144-7.69,17.144-17.144c0-22.573,0-45.115,0-67.607c0-9.453-7.69-17.144-17.144-17.144
	c-18.41,0-39.448,0-57.859,0c-9.453,0-17.144,7.69-17.144,17.144c0,22.492,0,45.035,0,67.607c0,9.453,7.69,17.144,17.144,17.144
	H398.065z M376.636,355.811h21.429c1.161,0,2.143,0.981,2.143,2.143v42.745h-23.571v-44.888H376.636z M338.064,357.954
	c0-1.161,0.981-2.143,2.143-2.143h21.429v44.888h-23.571v-42.745H338.064z M338.064,425.56v-9.861c7.545,0,54.57,0,62.145,0v9.861
	c0,1.161-0.981,2.143-2.143,2.143h-57.859C339.045,427.703,338.064,426.721,338.064,425.56z"/>
<path d="M171.762,442.704c9.453,0,17.144-7.69,17.144-17.144v-17.361v-50.245c0-9.453-7.69-17.144-17.144-17.144
	c-18.41,0-39.448,0-57.858,0c-9.453,0-17.143,7.69-17.143,17.144v50.245v17.361c0,9.453,7.69,17.144,17.143,17.144H171.762z
	 M150.332,355.811h21.429c1.161,0,2.143,0.981,2.143,2.143v42.745h-23.571L150.332,355.811L150.332,355.811z M111.76,357.954
	c0-1.161,0.981-2.143,2.142-2.143h21.429v44.888H111.76C111.76,400.698,111.76,357.954,111.76,357.954z M111.76,425.56v-9.861
	c7.545,0,54.57,0,62.145,0v9.861c0,1.161-0.982,2.143-2.143,2.143h-57.858C112.741,427.703,111.76,426.721,111.76,425.56z"/>
<path d="M244.52,399.901c-4.143,0-7.5,3.357-7.5,7.5v13.721c0,4.143,3.357,7.5,7.5,7.5s7.5-3.357,7.5-7.5v-13.721
	C252.021,403.258,248.662,399.901,244.52,399.901z"/>
<path d="M469.553,190.975c-0.772-9.539-7.901-17.313-17.251-18.976c0-16.625,0-111.284,0-130.335
	c12.037-2.133,19.875-14.187,16.605-26.088C466.457,6.402,458.126,0,448.633,0H63.334c-11.56,0-21.002,9.397-21.002,21.003
	c0,10.327,7.498,18.917,17.333,20.66V61.51v110.489c-10.066,1.79-17.333,10.569-17.333,20.674c0,10.327,7.498,18.917,17.333,20.66
	v45.395c-7.924,1.409-14.499,7.293-16.603,15.234c-0.05,0.182-0.097,0.363-0.152,0.592c-0.1,0.422-0.187,0.85-0.252,1.235
	c-0.055,0.311-0.103,0.622-0.149,0.978c-0.037,0.304-0.068,0.609-0.095,0.939c-0.026,0.227-0.047,0.457-0.059,0.699
	c-0.008,0.162-0.01,0.321-0.009,0.485c-0.009,0.169-0.015,0.339-0.015,0.511c0,10.328,7.498,18.917,17.333,20.66
	c0,14.493,0,45.232,0,60.693c0,4.142,3.357,7.5,7.5,7.5s7.5-3.358,7.5-7.5v-33.346h278.037c4.143,0,7.5-3.357,7.5-7.5
	s-3.357-7.5-7.5-7.5H74.666v-12.004h362.635v12.004h-49.596c-4.143,0-7.5,3.357-7.5,7.5s3.357,7.5,7.5,7.5h49.597v142.587H302.057
	V357.954c0-9.453-7.69-17.144-17.144-17.144h-57.859c-9.453,0-17.144,7.69-17.144,17.144v112.041H74.666v-74.239
	c0-4.143-3.357-7.5-7.5-7.5s-7.5,3.357-7.5,7.5v74.569c-7.826,1.392-14.658,7.216-16.755,15.826
	c-3.151,13.317,7.009,25.851,20.424,25.851h385.298c12.215,0,21.611-10.53,20.987-21.513c0.005-0.839-0.16-2.236-0.304-3.062
	c-0.105-0.611-0.243-1.252-0.408-1.853c-2.128-7.969-8.696-13.841-16.606-15.248V319.907v-19.846
	c9.835-1.743,17.333-10.333,17.333-20.66c0-0.17-0.005-0.339-0.015-0.511c0.001-0.162-0.002-0.326-0.01-0.495
	c-0.011-0.228-0.03-0.452-0.058-0.691c-0.025-0.315-0.057-0.632-0.1-0.971c-0.041-0.316-0.089-0.629-0.137-0.904
	c-0.074-0.43-0.16-0.853-0.271-1.318c-0.044-0.179-0.089-0.357-0.138-0.534c-2.128-7.969-8.696-13.841-16.606-15.249v-45.395
	C463.272,211.388,470.704,201.043,469.553,190.975z M57.548,19.462c0.695-2.626,3.075-4.461,5.786-4.461h385.298
	c2.81,0,5.388,2,5.904,5.001c0.651,3.623-2.184,7.002-5.904,7.002c-18.601,0-366.063,0-385.298,0
	C59.73,27.005,56.539,23.723,57.548,19.462z M160.194,69.01h277.108v102.658H415.06c0.286-2.281,0.086,1.668,0.149-69.749
	c0-9.453-7.69-17.144-17.144-17.144c-18.41,0-39.448,0-57.859,0c-9.453,0-17.144,7.69-17.144,17.144
	c0,0.103-0.09,67.844,0.149,69.749h-21.303c0.239-1.905,0.149-69.648,0.149-69.749c0-9.453-7.69-17.144-17.144-17.144
	c-18.41,0-39.448,0-57.859,0c-9.453,0-17.144,7.69-17.144,17.144v50.245c0.058,17.894-0.124,17.327,0.149,19.504h-21.302
	c0.239-1.905,0.149-69.648,0.149-69.749c0-9.453-7.69-17.144-17.144-17.144c-18.41,0-39.448,0-57.858,0
	c-9.453,0-17.143,7.69-17.143,17.144v50.245c0.057,17.894-0.125,17.327,0.149,19.504H74.666V69.01h50.525c4.143,0,7.5-3.357,7.5-7.5
	s-3.357-7.5-7.5-7.5H74.666V42.006h362.635v12.004H160.194c-4.143,0-7.5,3.357-7.5,7.5C152.694,65.653,156.051,69.01,160.194,69.01z
	 M400.209,159.665v9.861c0,1.161-0.981,2.143-2.143,2.143h-57.859c-1.161,0-2.143-0.981-2.143-2.143v-9.861
	C345.609,159.665,392.634,159.665,400.209,159.665z M338.064,144.664v-42.745c0-1.161,0.981-2.143,2.143-2.143h21.429v44.888
	H338.064z M376.636,144.664V99.777h21.429c1.161,0,2.143,0.981,2.143,2.143v42.745h-23.572V144.664z M287.056,159.665v9.861
	c0,1.161-0.981,2.143-2.143,2.143h-57.859c-1.161,0-2.143-0.981-2.143-2.143v-9.861
	C232.457,159.665,279.482,159.665,287.056,159.665z M224.911,144.664v-42.745c0-1.161,0.981-2.143,2.143-2.143h21.429v44.888
	H224.911z M263.484,144.664V99.777h21.429c1.161,0,2.143,0.981,2.143,2.143v42.745h-23.572V144.664z M173.905,159.665v9.861
	c0,1.161-0.982,2.143-2.143,2.143h-57.858c-1.161,0-2.142-0.981-2.142-2.143v-9.861C119.306,159.665,166.33,159.665,173.905,159.665
	z M111.76,144.664v-42.745c0-1.161,0.981-2.143,2.142-2.143h21.429v44.888H111.76z M150.332,144.664V99.777h21.429
	c1.161,0,2.143,0.981,2.143,2.143v42.745h-23.572V144.664z M224.911,357.954c0-1.161,0.981-2.143,2.143-2.143h57.859
	c1.161,0,2.143,0.981,2.143,2.143v112.041h-62.145L224.911,357.954L224.911,357.954z M454.538,489.997
	c0.048,0.267,0.077,0.603,0.082,0.854c0.101,3.419-2.671,6.148-5.986,6.148H63.334c-3.858,0-6.72-3.604-5.838-7.342
	c0.067-0.1,1.061-4.661,5.838-4.661c64.445,0,283.093,0,385.298,0C451.443,484.995,454.022,486.995,454.538,489.997z
	 M454.419,277.859c0.006,0.021,0.021,0.077,0.026,0.098l0.016,0.06c0.027,0.114,0.051,0.229,0.077,0.383
	c0.016,0.087,0.028,0.175,0.036,0.233c0.013,0.105,0.023,0.213,0.032,0.342c0.004,0.043,0.007,0.087,0.012,0.131
	c0,0.049,0.001,0.099,0.002,0.148c0.003,0.1,0.007,0.199,0.013,0.301c-0.082,3.238-2.742,5.847-5.999,5.847h-3.831H67.165h-3.831
	c-3.256,0-5.914-2.605-5.999-5.842c0.006-0.105,0.011-0.221,0.015-0.357c0-0.033,0.001-0.066,0.001-0.099
	c0.005-0.053,0.009-0.104,0.013-0.15c0.008-0.109,0.018-0.218,0.026-0.286c0.011-0.087,0.023-0.174,0.047-0.307
	c0.021-0.116,0.043-0.232,0.06-0.301l0.052-0.2c0.695-2.626,3.075-4.461,5.786-4.461h3.831h377.636h3.831
	C451.344,273.399,453.723,275.233,454.419,277.859z M74.666,258.398v-44.724h22.763v44.724H74.666z M112.43,258.398v-44.724h22.762
	v44.724H112.43z M150.193,258.398v-44.724h22.763v44.724H150.193z M187.957,258.398v-44.724h22.762v44.724H187.957z M225.72,258.398
	v-44.724h22.763v44.724H225.72z M263.484,258.398v-44.724h22.763v44.724H263.484z M301.249,258.398v-44.724h22.762v44.724H301.249z
	 M339.011,258.398v-44.724h22.763v44.724H339.011z M376.775,258.398v-44.724h22.762v44.724H376.775z M414.538,258.398v-44.724
	h22.763v44.724H414.538z M448.633,198.673c-19.235,0-366.634,0-385.298,0c-4.062,0-6.67-3.857-5.838-7.342l0.052-0.2
	c1.555-5.872,8.424-4.215,9.618-4.461c112.038,0,200.978,0,381.467,0c2.896,0,5.763,2.016,5.999,6.156
	C454.551,196.065,451.89,198.673,448.633,198.673z"/>
<g>
</g>
<g>
</g>
<g>
</g>
<g>
</g>
<g>
</g>
<g>
</g>
<g>
</g>
<g>
</g>
<g>
</g>
<g>
</g>
<g>
</g>
<g>
</g>
<g>
</g>
<g>
</g>
<g>
</g>
</svg>
