<svg id="Capa_1" enable-background="new 0 0 512 512" height="512" viewBox="0 0 512 512" width="512" xmlns="http://www.w3.org/2000/svg"><g id="XMLID_400_"><path id="XMLID_1330_" d="m82 82h160v60h-160z" fill="#fff"/><path id="XMLID_1329_" d="m260 82h-196c-5.523 0-10-4.477-10-10v-52c0-5.523 4.477-10 10-10h196c5.523 0 10 4.477 10 10v52c0 5.523-4.477 10-10 10z" fill="#a0c8ff"/><path id="XMLID_518_" d="m250 502h-176c-35.346 0-64-28.654-64-64v-232c0-35.346 28.654-64 64-64h176c35.346 0 64 28.654 64 64v232c0 35.346-28.654 64-64 64z" fill="#a0c8ff"/><path id="XMLID_1328_" d="m176 438h-166v-232h166c18.778 0 34 15.222 34 34v164c0 18.778-15.222 34-34 34z" fill="#ff5c7d"/><g id="XMLID_380_"><path id="XMLID_682_" d="m409 306.999c-17.673 0-32-14.327-32-32v-80c0-17.673 14.327-32 32-32 17.673 0 32 14.327 32 32v80c0 17.673-14.327 32-32 32z" fill="#fff"/><path id="XMLID_686_" d="m409 162.999c-17.673 0-32 14.327-32 32v40h64v-40c0-17.673-14.327-32-32-32z" fill="#ff5c7d"/></g><g id="XMLID_1301_"><path id="XMLID_1305_" d="m492.627 390.804c12.497 12.497 12.497 32.758 0 45.255l-56.569 56.569c-12.497 12.497-32.758 12.497-45.255 0-12.497-12.497-12.497-32.758 0-45.255l56.569-56.569c12.497-12.497 32.759-12.497 45.255 0z" fill="#fff"/><path id="XMLID_1304_" d="m390.804 492.627c12.497 12.497 32.758 12.497 45.255 0l28.284-28.284-45.255-45.255-28.284 28.284c-12.497 12.497-12.497 32.758 0 45.255z" fill="#ff5c7d"/></g><g id="XMLID_432_"><path id="XMLID_493_" d="m252 132.051v-40.051h8c11.028 0 20-8.972 20-20v-52c0-11.028-8.972-20-20-20h-196c-11.028 0-20 8.972-20 20v52c0 11.028 8.972 20 20 20h8v40.051c-39.88 1.066-72 33.816-72 73.949v232c0 40.804 33.196 74 74 74h176c40.804 0 74-33.196 74-74v-232c0-40.133-32.12-72.883-72-73.949zm8.013-60.052s-.004.001-.013.001h-34v-52h34zm-142.013.001v-52h34v52zm54-52h34v52h-34zm-108 0h34v52h-34zm168 72v40h-140v-40zm72 346c0 29.776-24.225 54-54 54h-176c-26.358 0-48.352-18.987-53.057-44h155.057c24.262 0 44-19.738 44-44v-36.437c0-5.523-4.477-10-10-10s-10 4.477-10 10v36.437c0 13.233-10.767 24-24 24h-156v-212h156c13.233 0 24 10.767 24 24v37.563c0 5.523 4.477 10 10 10s10-4.477 10-10v-37.563c0-24.262-19.738-44-44-44h-155.057c4.705-25.012 26.699-44 53.057-44h176c29.775 0 54 24.224 54 54z"/><path id="XMLID_511_" d="m143.667 312h-23.667v-23.667c0-5.523-4.478-10-10-10s-10 4.477-10 10v23.667h-23.667c-5.522 0-10 4.477-10 10s4.478 10 10 10h23.667v23.667c0 5.523 4.478 10 10 10s10-4.477 10-10v-23.667h23.667c5.522 0 10-4.477 10-10s-4.478-10-10-10z"/><path id="XMLID_517_" d="m409 316.999c23.159 0 42-18.841 42-41.999v-80.001c0-23.159-18.841-42-42-42s-42 18.841-42 42v80.001c0 23.158 18.841 41.999 42 41.999zm0-20c-12.131 0-22-9.869-22-21.999v-30.001h44v30.001c0 12.13-9.869 21.999-22 21.999zm0-124c12.131 0 22 9.869 22 22v30h-44v-30c0-12.131 9.869-22 22-22z"/><path id="XMLID_527_" d="m499.698 383.733c-7.933-7.933-18.479-12.302-29.698-12.302s-21.766 4.369-29.698 12.301l-56.569 56.569c-16.375 16.375-16.375 43.021 0 59.397 7.934 7.933 18.48 12.301 29.699 12.301s21.766-4.369 29.698-12.301l56.568-56.569c7.933-7.933 12.302-18.48 12.302-29.699 0-11.217-4.369-21.765-12.302-29.697zm-70.711 101.824c-4.155 4.155-9.68 6.443-15.556 6.443-5.877 0-11.401-2.289-15.557-6.443-8.577-8.578-8.577-22.536 0-31.113l21.213-21.213 31.113 31.112zm56.569-56.569-21.213 21.212-31.113-31.112 21.214-21.214c4.155-4.155 9.68-6.443 15.556-6.443s11.4 2.288 15.556 6.443v.001c4.155 4.155 6.444 9.68 6.444 15.556 0 5.877-2.289 11.401-6.444 15.557z"/><path id="XMLID_529_" d="m210.56 312.56c-2.63 0-5.21 1.07-7.069 2.93-1.86 1.86-2.931 4.44-2.931 7.07s1.07 5.21 2.931 7.079c1.859 1.86 4.439 2.921 7.069 2.921s5.21-1.06 7.07-2.921c1.87-1.87 2.93-4.45 2.93-7.079 0-2.63-1.06-5.21-2.93-7.07-1.86-1.86-4.441-2.93-7.07-2.93z"/></g></g></svg>