<?xml version="1.0" encoding="iso-8859-1"?>
<!-- Generator: Adobe Illustrator 19.0.0, SVG Export Plug-In . SVG Version: 6.00 Build 0)  -->
<svg version="1.1" id="Layer_1" xmlns="http://www.w3.org/2000/svg" xmlns:xlink="http://www.w3.org/1999/xlink" x="0px" y="0px"
	 viewBox="0 0 512 512" style="enable-background:new 0 0 512 512;" xml:space="preserve">
<path style="fill:#FFD311;" d="M392.727,48.442c32.052,0,57.975,25.923,57.975,57.975s-25.923,57.975-57.975,57.975
	s-57.975-25.923-57.975-57.975C334.751,74.365,360.674,48.442,392.727,48.442z"/>
<path style="fill:#FDB51E;" d="M392.727,7.03c54.911,0,99.387,44.476,99.387,99.387s-44.476,99.387-99.387,99.387
	s-99.387-44.476-99.387-99.387S337.815,7.03,392.727,7.03z M450.702,106.417c0-32.052-25.923-57.975-57.975-57.975
	s-57.975,25.923-57.975,57.975s25.923,57.975,57.975,57.975C424.779,164.393,450.702,138.47,450.702,106.417z"/>
<g>
	<polygon style="fill:#FFD311;" points="483.831,404.578 500.396,404.578 500.396,454.272 475.549,454.272 475.549,503.965 
		293.34,503.965 293.34,454.272 318.186,454.272 318.186,404.578 301.622,404.578 301.622,363.167 301.622,354.885 276.775,354.885 
		276.775,305.192 293.34,305.192 293.34,255.498 309.904,255.498 309.904,205.805 392.727,205.805 492.114,205.805 492.114,255.498 
		475.549,255.498 475.549,305.192 458.985,305.192 458.985,354.885 483.831,354.885 	"/>
	<polygon style="fill:#FFD311;" points="227.082,354.885 251.929,354.885 251.929,404.578 251.929,454.272 218.799,454.272 
		218.799,503.965 36.591,503.965 36.591,454.272 69.719,454.272 69.719,404.578 69.719,354.885 44.872,354.885 44.872,305.192 
		61.437,305.192 61.437,255.498 78.001,255.498 78.001,205.805 53.154,205.805 53.154,156.111 36.591,156.111 36.591,106.417 
		61.437,106.417 61.437,56.724 243.646,56.724 243.646,106.417 218.799,106.417 218.799,156.111 235.364,156.111 235.364,205.805 
		260.211,205.805 260.211,255.498 243.646,255.498 243.646,305.192 227.082,305.192 	"/>
</g>
<g>
	<rect x="169.033" y="99.391" style="fill:#231F20;" width="16.565" height="15.065"/>
	<rect x="185.604" y="198.771" style="fill:#231F20;" width="16.564" height="15.065"/>
	<rect x="169.033" y="298.162" style="fill:#231F20;" width="16.565" height="15.065"/>
	<rect x="177.318" y="397.543" style="fill:#231F20;" width="16.564" height="15.065"/>
	<rect x="210.452" y="397.543" style="fill:#231F20;" width="16.564" height="15.065"/>
</g>
<g>
	<rect x="94.5" y="149.086" style="fill:#FFFFFF;" width="16.564" height="15.065"/>
	<rect x="119.347" y="248.467" style="fill:#FFFFFF;" width="16.564" height="15.065"/>
	<rect x="102.775" y="347.858" style="fill:#FFFFFF;" width="16.565" height="15.065"/>
	<rect x="94.5" y="447.238" style="fill:#FFFFFF;" width="16.564" height="15.065"/>
	<rect x="417.499" y="248.467" style="fill:#FFFFFF;" width="16.565" height="15.065"/>
	<rect x="409.224" y="356.133" style="fill:#FFFFFF;" width="16.564" height="15.065"/>
	<rect x="425.785" y="447.238" style="fill:#FFFFFF;" width="16.565" height="15.065"/>
</g>
<g>
	<rect x="359.528" y="397.543" style="fill:#231F20;" width="16.565" height="15.065"/>
	<rect x="334.68" y="298.162" style="fill:#231F20;" width="16.565" height="15.065"/>
	<path style="fill:#231F20;" d="M458.166,106.919c0-36.122-29.387-65.508-65.509-65.508s-65.509,29.386-65.509,65.508
		s29.387,65.509,65.509,65.509S458.166,143.041,458.166,106.919z M342.213,106.919c0-27.815,22.628-50.443,50.444-50.443
		c27.815,0,50.444,22.628,50.444,50.443s-22.628,50.444-50.444,50.444C364.842,157.363,342.213,134.734,342.213,106.919z"/>
</g>
<g>
	<rect x="359.528" y="99.391" style="fill:#FFFFFF;" width="16.565" height="15.065"/>
	<rect x="409.224" y="99.391" style="fill:#FFFFFF;" width="16.564" height="15.065"/>
</g>
<path style="fill:#231F20;" d="M483.012,496.935v-34.628h24.847v-64.759h-16.565v-49.693h-24.847v-34.628h16.565v-49.693h16.565
	v-64.759h-52.257c31.269-18.679,52.257-52.859,52.257-91.854C499.577,47.964,451.612,0,392.657,0S285.737,47.964,285.737,106.919
	c0,38.995,20.987,73.176,52.255,91.854h-35.691v49.693h-16.565v49.693h-16.564v64.759h24.846v49.693h16.565v34.628h-24.847v49.693
	h-59.475v-34.628h33.129V347.855h-24.847v-34.628h16.565v-49.693h16.564v-64.759h-24.847v-49.693h-16.564v-34.629h24.847V49.693
	H53.835v49.693H28.988v64.76h16.565v49.693h24.846v34.628H53.835v49.693H37.27v64.759h24.847v84.321H28.988v49.693H3.392V512
	h505.217v-15.065L483.012,496.935L483.012,496.935z M127.625,447.241v15.065h83.572v34.628H44.053v-34.628h33.129v-49.693h83.572
	v-15.065H77.181v-49.693H52.335v-34.628h100.137v-15.065H68.9v-34.628h16.564V213.84h83.572v-15.065H60.618v-49.693H44.053v-34.629
	h108.419V99.387H68.9V64.759h167.144v34.628h-24.847v49.694h-83.572v15.065h100.136v49.693h24.847v34.628H152.472v15.065h83.572
	v34.628h-16.565v49.693h-83.572v15.065h108.419v84.321L127.625,447.241L127.625,447.241z M300.803,106.919
	c0-50.649,41.206-91.854,91.854-91.854c50.65,0,91.855,41.206,91.855,91.854s-41.206,91.854-91.855,91.854
	C342.008,198.774,300.803,157.568,300.803,106.919z M467.947,496.935H300.803v-34.628h108.419v-15.065h-83.572v-49.693h-16.565
	v-26.346h83.572v-15.065h-83.572v-8.283h-24.846v-34.628h16.564v-49.693H400.94v-15.065h-83.572v-34.628h167.144v34.628h-16.565
	v49.693H367.811v15.065h83.571v49.693h24.847v34.628h-83.572v15.065h100.137v34.628h-24.847L467.947,496.935L467.947,496.935z"/>
<g>
</g>
<g>
</g>
<g>
</g>
<g>
</g>
<g>
</g>
<g>
</g>
<g>
</g>
<g>
</g>
<g>
</g>
<g>
</g>
<g>
</g>
<g>
</g>
<g>
</g>
<g>
</g>
<g>
</g>
</svg>
