<?xml version="1.0" encoding="iso-8859-1"?>
<!-- Generator: Adobe Illustrator 19.0.0, SVG Export Plug-In . SVG Version: 6.00 Build 0)  -->
<svg version="1.1" id="Capa_1" xmlns="http://www.w3.org/2000/svg" xmlns:xlink="http://www.w3.org/1999/xlink" x="0px" y="0px"
	 viewBox="0 0 511.998 511.998" style="enable-background:new 0 0 511.998 511.998;" xml:space="preserve">
<path style="fill:#E2C35A;" d="M471.675,204.68c-0.511-5.533-5.265-9.697-10.817-9.472c-1.864,0.082-3.744,0.125-5.626,0.163
	c0,0-0.694-0.607-1.362-1.199c-0.637-5.931-0.362-10.747-5.528-15.385c-5.242-4.583-10.254-3.738-16.006-3.51
	c-0.53-0.445-0.898-0.754-1.427-1.199c-0.816-5.861-1.002-7.951-2.687-10.864c-5.59-9.384-15.031-7.227-19.85-6.728
	c-0.023-0.006-0.058-0.017-0.081-0.023c-0.537-0.394-0.919-0.674-1.464-1.075c-1.199-5.89-1.783-10.92-7.333-14.649
	c-5.45-3.766-10.212-2.558-16.317-1.485c-0.585-0.369-0.99-0.624-1.575-0.993c-1.391-5.008-2.182-10.594-8.265-14.148
	c-5.756-3.385-10.232-1.896-16.219-0.448c-0.227-0.039-0.424-0.073-0.651-0.113c-1.008-0.666-1.024-0.665-1.151-0.733l-1.88-5.321
	c-2.54-7.16-10.525-11.558-18.3-9.205c-1.799,0.531-3.596,1.093-5.386,1.662c-0.634-0.292-1.067-0.491-1.701-0.782
	c-2.269-5.345-3.733-10.073-10.036-12.8L204.067,271.35c90.529,6.741,209.883-5.426,262.201-41.112
	c4.583-3.127,6.7-7.96,6.563-12.85h0.019C472.839,217.28,471.688,204.81,471.675,204.68z"/>
<path style="fill:#F3E29A;" d="M318.014,96.371l-0.009-0.013c-6.255-2.589-10.816-0.337-14.742,1.309
	c-1.022,0.033-2.445,0.081-3.467,0.114l-0.023-0.008c-2.965-5.438-5.052-9.872-11.672-11.674
	c-7.089-1.773-11.184,1.374-15.968,4.427c-0.691-0.111-1.179-0.189-1.87-0.301c-1.182-1.441-2.401-2.87-3.675-4.317
	c-4.262-4.696-11.182-5.676-16.423-3.369c-3.535,1.636-4.912,3.463-8.379,7.68c-0.69,0.11-1.178,0.188-1.868,0.298
	c-5.241-3.346-9.05-6.154-15.96-4.434c-6.61,1.79-8.706,6.218-11.681,11.671h-0.001c-0.874,0.051-1.972,0.115-2.847,0.165
	c-4.591-1.944-8.999-4.146-15.235-1.645c-6.366,2.645-7.891,7.463-10.186,12.868c-0.093,0.042-1.623,0.742-1.715,0.787
	c-5.926-1.883-10.345-3.708-16.366-0.712c-6.253,3.246-7.218,7.979-9.184,13.602c-0.001,0.001-1.377,0.743-1.645,0.892
	c-5.693-1.358-7.832-1.967-11.101-1.43c-10.814,1.834-12.174,11.455-13.436,16.159c-0.897,0.577-1.05,0.675-1.565,1.007
	c-6.076-1.012-10.881-2.192-16.301,1.63c-5.558,3.812-6.067,8.887-7.198,14.71c-0.556,0.416-0.941,0.703-1.498,1.119
	c-5.195-0.495-10.675-1.748-16.162,2.631c-5.236,4.15-5.454,8.863-6.303,15.108c-0.529,0.447-0.896,0.757-1.423,1.204l-5.638-0.2
	c-5.477-0.189-11.007,2.77-13.76,8.175c-1.665,3.269-1.298,4.636-2.183,10.875c-0.48,0.396-0.948,0.778-1.404,1.142
	c-2.937-0.189-4.67-0.385-5.704-0.484c-5.628-0.579-10.588,3.734-11.107,9.368l-1.168,29.214h0.019
	c-0.138,4.89,1.979,9.724,6.562,12.85c8.984,6.128,23.416,11.511,45.865,18.75c16.953,5.466,35.944,5.848,56.374,5.501
	C241.145,269.462,319.707,193.958,318.014,96.371z"/>
<path style="fill:#A0B7CB;" d="M473.727,223.807H256.011L113.262,379.793h0.022c0,0.649,0.011,1.295,0.034,1.939
	c0.978,27.466,23.86,48.935,50.99,48.935h91.703h91.703c27.13,0,50.012-21.469,50.99-48.935c0.023-0.644,0.034-1.291,0.034-1.939
	h0.022c52.441-26.958,90.607-68.356,104.265-116.537C508.625,243.502,494.015,223.807,473.727,223.807z"/>
<path style="fill:#AB5034;" d="M319.252,290.329l-47.327,51.715h181.128c16.546-15.439,29.927-32.859,39.395-51.715H319.252z"/>
<path style="fill:#BDCDD4;" d="M316.356,332.945L316.356,332.945c33.724-44.676,2.279-109.138-53.238-109.138H38.296
	c-20.212,0-34.902,19.585-29.347,39.273c13.616,48.262,51.826,89.724,104.34,116.714h109.109c36.536,0,71.177-16.948,93.502-46.246
	C316.052,333.347,316.204,333.146,316.356,332.945z"/>
<path style="fill:#BD7155;" d="M58.982,342.044h249.772c2.498-2.705,4.887-5.535,7.144-8.497c0.153-0.201,0.305-0.401,0.457-0.603
	l0,0c9.966-13.202,14.237-28.132,13.881-42.615H19.579C29.049,309.187,42.432,326.606,58.982,342.044z"/>
<path d="M139.008,162.03c6.78,2.63,17.849,2.631,24.673,0c6.825-2.63,6.861-6.911,0.081-9.541c-6.781-2.63-17.849-2.631-24.674,0
	C132.264,155.118,132.227,159.398,139.008,162.03z"/>
<path d="M210.848,168.595c2.872-6.21,2.872-16.348,0-22.6c-2.872-6.25-7.545-6.283-10.419-0.073c-2.872,6.21-2.872,16.348,0,22.6
	C203.303,174.772,207.976,174.805,210.848,168.595z"/>
<path d="M234.282,165.394c2.764,6.251,10.59,13.42,17.447,15.98s10.187-0.444,7.423-6.695c-2.764-6.251-10.59-13.421-17.447-15.98
	C234.849,156.139,231.52,159.143,234.282,165.394z"/>
<path d="M189.632,202.074c6.857,2.56,10.187-0.444,7.423-6.695c-2.764-6.251-10.59-13.421-17.447-15.981
	c-6.856-2.56-10.187,0.444-7.423,6.696C174.948,192.345,182.775,199.514,189.632,202.074z"/>
<path d="M293.626,182.113c2.467-6.374,2.001-16.978-1.036-23.637c-3.039-6.659-7.517-6.889-9.983-0.515s-2.001,16.978,1.037,23.636
	C286.681,188.257,291.16,188.487,293.626,182.113z"/>
<path d="M262.774,141.074c6.251-2.764,13.421-10.59,15.98-17.447c2.56-6.857-0.444-10.187-6.695-7.423
	c-6.251,2.764-13.42,10.59-15.98,17.447C253.519,140.507,256.523,143.837,262.774,141.074z"/>
<path d="M213.944,123.8c6.374,2.467,16.977,2.001,23.636-1.036c6.659-3.039,6.889-7.517,0.515-9.983
	c-6.374-2.467-16.978-2.001-23.637,1.037C207.799,116.854,207.568,121.333,213.944,123.8z"/>
<path d="M92.062,210.531c6.825-2.531,14.652-9.7,17.447-15.98c2.795-6.28-0.485-9.33-7.309-6.8
	c-6.825,2.531-14.653,9.7-17.448,15.98C81.957,210.013,85.237,213.063,92.062,210.531z"/>
<path d="M424.264,213.557c6.78,2.63,17.849,2.631,24.674,0c6.824-2.631,6.861-6.911,0.08-9.542c-6.78-2.63-17.849-2.631-24.673,0
	C417.52,206.646,417.484,210.925,424.264,213.557z"/>
<path d="M352.457,187.515c6.781,2.63,17.849,2.63,24.674,0c6.824-2.631,6.861-6.911,0.08-9.543c-6.78-2.63-17.849-2.631-24.673,0
	C345.713,180.604,345.677,184.885,352.457,187.515z"/>
<path d="M338.569,171.851c6.857,2.56,10.187-0.444,7.423-6.696c-2.764-6.251-10.59-13.42-17.447-15.98
	c-6.856-2.56-10.187,0.444-7.423,6.695C323.886,162.122,331.713,169.291,338.569,171.851z"/>
<path d="M408.418,196.996c6.856,2.56,10.187-0.444,7.423-6.696c-2.764-6.251-10.59-13.42-17.447-15.98s-10.187,0.444-7.423,6.695
	C393.734,187.267,401.561,194.436,408.418,196.996z"/>
<path d="M374.451,162.728c6.856,2.56,10.187-0.444,7.423-6.696c-2.764-6.251-10.59-13.42-17.447-15.98s-10.187,0.444-7.423,6.695
	C359.766,152.999,367.593,160.168,374.451,162.728z"/>
<path d="M504.109,231.229c-5.882-7.781-14.226-12.88-23.538-14.564l0,0l-1.172-12.697c-0.868-9.4-8.749-16.525-18.129-16.525
	c-0.099,0-0.197,0.001-0.296,0.003c-0.655-4.59-2.203-9.721-7.525-14.5c-5.465-4.777-10.907-5.63-15.701-5.636
	c-0.523-2.896-1.241-5.266-2.862-8.068c-6.044-10.144-15.314-11.323-21.661-11.032c-1.231-4.78-3.45-9.909-9.322-13.855
	c-5.89-4.07-11.359-4.295-16.365-3.68c-1.458-4.443-4.066-9.626-10.27-13.252c-6.224-3.66-11.652-3.501-16.536-2.564
	c-4.048-11.352-16.274-17.498-27.793-14.012c-0.014,0.004-0.028,0.008-0.042,0.012c-2.049-4.21-5.108-8.59-11.409-11.437
	c-0.169-0.085-0.341-0.163-0.517-0.237c-7.105-2.942-12.989-1.647-17.196-0.105c-2.715-4.356-6.443-8.513-13.636-10.472
	c-0.052-0.014-0.104-0.028-0.156-0.041c-7.489-1.873-13.022,0.102-17.319,2.498c-0.086-0.098-0.172-0.194-0.258-0.293
	c-0.024-0.027-0.049-0.055-0.072-0.082c-6.258-6.897-16.66-9.059-25.293-5.256c-0.044,0.02-0.089,0.039-0.133,0.06
	c-3.358,1.555-5.469,3.307-7.533,5.557c-4.477-2.514-9.787-4.366-17.288-2.502c-0.053,0.013-0.106,0.027-0.156,0.041
	c-7.19,1.949-10.926,6.109-13.65,10.471c-4.439-1.628-10.047-2.769-17.06,0.044c-6.715,2.79-9.924,7.35-12.062,11.742
	c-4.82-1.272-10.234-1.79-16.685,1.42c-0.039,0.021-0.078,0.039-0.117,0.06c-6.507,3.378-9.29,8.119-11.044,12.552
	c-2.949-0.579-5.441-0.775-8.609-0.252c-11.682,1.982-16.112,10.224-18.122,16.283c-4.924-0.552-10.517-0.295-16.271,3.763
	c-5.915,4.058-8.093,9.2-9.274,13.97c-4.665-0.227-10.426,0.348-16.014,4.807c-5.611,4.448-7.438,9.551-8.343,14.437
	c-8.731-0.266-16.893,4.59-20.877,12.412c-1.438,2.824-1.918,4.968-2.223,7.282c-4.494-0.308-8.881,1.113-12.414,4.018
	c-3.733,3.07-6.129,7.592-6.573,12.408c-0.007,0.078-0.013,0.155-0.018,0.234L31.81,216.6c-9.465,1.617-17.959,6.751-23.929,14.637
	c-7.394,9.77-9.727,22.142-6.397,33.946c13.674,48.471,50.615,90.733,104.231,119.397c1.137,14.287,7.447,27.532,17.942,37.533
	c11.035,10.518,25.473,16.311,40.653,16.311h183.405c30.791,0,56.129-23.736,58.587-53.827
	c53.545-28.621,90.469-70.824,104.187-119.227C513.855,253.491,511.53,241.045,504.109,231.229z M49.015,203.587
	c0.334-0.276,0.893-0.596,1.666-0.509l0.573,0.057c1.118,0.112,2.809,0.281,5.372,0.447c1.929,0.124,3.836-0.477,5.345-1.685
	c0.486-0.389,0.984-0.794,1.496-1.217c1.49-1.231,2.469-2.976,2.741-4.891c0.269-1.892,0.428-3.355,0.556-4.532
	c0.296-2.704,0.335-2.887,0.857-3.912c1.269-2.49,3.832-4.041,6.574-3.944l5.638,0.2c1.936,0.07,3.81-0.582,5.281-1.828l1.423-1.204
	c1.467-1.239,2.421-2.978,2.68-4.88l0.195-1.477c0.723-5.538,1.082-6.888,3.259-8.615c2.159-1.723,3.988-1.694,8.676-1.173
	c0.64,0.07,1.277,0.142,1.911,0.202c1.318,0.128,2.627-0.093,3.82-0.61c0.137,0.841,0.411,1.771,0.865,2.799
	c2.764,6.251,10.59,13.42,17.447,15.98c6.856,2.56,10.187-0.444,7.423-6.695c-2.764-6.251-10.59-13.42-17.447-15.98
	c-1.087-0.406-2.074-0.657-2.973-0.792c0.332-0.646,0.575-1.339,0.716-2.064l0.283-1.495c0.988-5.279,1.479-6.783,3.768-8.353
	c2.196-1.548,3.714-1.485,9.259-0.538l1.298,0.22c1.901,0.314,3.85-0.087,5.469-1.128l1.569-1.008
	c1.62-1.044,2.794-2.651,3.293-4.512c0.126-0.466,0.252-0.977,0.387-1.521c1.491-6.038,2.752-8.304,6.814-8.993
	c1.398-0.233,2.253-0.067,6.926,1.053l1.12,0.269c1.875,0.445,3.851,0.179,5.542-0.752c0.246-0.137,1.465-0.794,1.573-0.852
	c1.706-0.917,3.009-2.44,3.65-4.274c0.223-0.638,0.434-1.266,0.64-1.88c1.539-4.579,2.109-5.984,4.733-7.363
	c2.471-1.215,3.871-0.955,9.173,0.759l1.33,0.427c1.902,0.604,3.873,0.495,5.667-0.381c0.216-0.101,1.466-0.672,1.59-0.729
	c1.776-0.802,3.185-2.243,3.947-4.036c0.2-0.472,0.394-0.937,0.585-1.399c1.945-4.667,2.691-6.197,5.348-7.302
	c2.783-1.116,4.515-0.468,8.508,1.24l0.813,0.348c1.095,0.463,2.281,0.672,3.473,0.601l2.847-0.165
	c2.674-0.154,5.079-1.678,6.362-4.03l0.46-0.848c2.753-5.074,3.623-6.271,6.363-7.031c3.095-0.75,4.433-0.004,8.96,2.904
	l0.874,0.561c1.601,1.022,3.523,1.422,5.397,1.122l1.878-0.301c1.867-0.3,3.558-1.271,4.759-2.732l0.537-0.653
	c2.944-3.588,3.453-4.137,5.033-4.878c2.141-0.915,5.458-0.707,7.468,1.476c1.221,1.387,2.35,2.713,3.449,4.053
	c1.201,1.466,2.897,2.44,4.767,2.741l1.868,0.3c1.877,0.308,3.803-0.095,5.407-1.119l1.075-0.692
	c4.167-2.694,5.659-3.523,8.758-2.77c2.743,0.764,3.61,1.957,6.349,7.008l0.474,0.873c0.939,1.723,2.521,3.035,4.381,3.654
	c0.871,0.29,1.774,0.428,2.707,0.394l3.466-0.113c0.944-0.031,1.875-0.235,2.747-0.6l0.707-0.298c3.381-1.435,5.177-2.1,7.807-1.101
	c0.053,0.024,0.105,0.048,0.158,0.07c2.737,1.184,3.467,2.686,5.366,7.257c0.199,0.479,0.4,0.964,0.608,1.453
	c0.755,1.781,2.149,3.215,3.908,4.021l1.697,0.78c1.756,0.807,3.751,0.927,5.593,0.342c1.737-0.553,3.481-1.099,5.277-1.629
	c4.013-1.215,7.661,1.326,8.74,4.366l1.88,5.323c0.62,1.752,1.881,3.242,3.493,4.165c0.123,0.078,0.327,0.212,0.694,0.454
	c0.901,0.596,1.917,0.997,2.982,1.178l0.583,0.101c1.058,0.191,2.143,0.156,3.188-0.096l1.337-0.328
	c5.369-1.327,6.743-1.478,9.143-0.066c2.394,1.399,3.024,3.118,4.212,7.675c0.161,0.623,0.324,1.241,0.493,1.851
	c0.516,1.858,1.705,3.457,3.335,4.485l1.57,0.991c1.631,1.031,3.587,1.417,5.489,1.083l1.27-0.228c5.556-1,7.079-1.077,9.377,0.51
	c2.212,1.487,2.721,3.004,3.776,8.344l0.281,1.413c0.384,1.885,1.454,3.559,3.003,4.7l1.471,1.08
	c0.791,0.581,1.587,0.979,2.535,1.228c0.047,0.013,0.133,0.036,0.179,0.049c0.899,0.236,1.834,0.305,2.757,0.21
	c0.478-0.05,0.998-0.113,1.551-0.182c6.154-0.759,8.714-0.397,10.785,3.078c0.751,1.298,0.894,2.064,1.547,6.806l0.172,1.245
	c0.265,1.898,1.223,3.631,2.689,4.865l1.433,1.204c1.478,1.242,3.378,1.897,5.296,1.811c0.652-0.025,1.294-0.059,1.928-0.092
	c4.723-0.241,6.467-0.233,8.59,1.622c2.132,1.914,2.348,3.355,2.77,8.06c0.069,0.776,0.141,1.569,0.229,2.382
	c0.206,1.923,1.123,3.7,2.571,4.981l1.391,1.225c1.454,1.275,3.305,1.943,5.271,1.921c1.942-0.039,3.883-0.085,5.781-0.168
	c1.405-0.096,2.648,1.012,2.78,2.442l0.557,6.04c0.152,1.66,0.308,3.345,0.424,4.608h-75.34c-0.272-2.993-0.931-5.855-1.998-8.177
	c-2.872-6.25-7.545-6.283-10.418-0.073c-1.079,2.333-1.737,5.224-2.002,8.252h-20.612c0.329-1.274,0.095-2.979-0.82-5.051
	c-2.764-6.251-10.59-13.42-17.447-15.98c-6.856-2.56-10.187,0.444-7.423,6.695c2.303,5.212,8.125,11.051,13.971,14.335h-36.687
	c1.582-6.404,0.912-15.368-1.774-21.253c-3.039-6.659-7.517-6.889-9.983-0.515c-2.248,5.81-2.053,15.122,0.297,21.768h-16.96
	c0.736-1.312,0.641-3.315-0.49-5.876c-2.764-6.251-10.59-13.421-17.447-15.98c-6.857-2.56-10.187,0.444-7.423,6.695
	c2.512,5.684,9.208,12.113,15.558,15.161h-17.542c1.511-2.238,0.035-4.716-4.473-6.464c-6.781-2.63-17.849-2.631-24.674,0
	c-4.539,1.749-6.056,4.227-4.582,6.465h-72.609c0.216-1.236-0.053-2.834-0.895-4.738c-2.764-6.251-10.59-13.421-17.447-15.98
	c-6.856-2.56-10.187,0.444-7.423,6.695c2.231,5.046,7.762,10.689,13.418,14.023H47.385l0.662-10.693
	C48.131,204.669,48.481,204.026,49.015,203.587z M450.1,334.287H164.634c-4.285,0-7.757,3.472-7.757,7.757
	c0,4.285,3.472,7.757,7.757,7.757h267.324c-10.643,8.131-22.381,15.578-35.113,22.234H183.596c-4.285,0-7.757,3.472-7.757,7.757
	c0,4.285,3.472,7.757,7.757,7.757h206.671c-3.679,20.083-21.354,35.361-42.553,35.361H164.309c-20.94,0-38.873-15.38-42.565-35.361
	h30.823c4.285,0,7.757-3.472,7.757-7.757c0-4.285-3.472-7.757-7.757-7.757h-37.363c-12.735-6.658-24.477-14.105-35.123-22.234
	h29.734c4.285,0,7.757-3.472,7.757-7.757c0-4.285-3.472-7.757-7.757-7.757H61.934c-11.632-11.175-21.449-23.314-29.259-36.201h51.08
	c4.285,0,7.757-3.472,7.757-7.757c0-4.285-3.472-7.757-7.757-7.757H24.419c-3.245-7.029-5.929-14.237-8.006-21.598
	c-1.999-7.085-0.601-14.509,3.835-20.37c4.348-5.745,10.925-9.039,18.047-9.039h435.431c7.109,0,13.672,3.288,18.005,9.02
	c4.462,5.904,5.858,13.396,3.828,20.557c-2.07,7.303-4.736,14.454-7.956,21.431H144.29c-4.285,0-7.757,3.472-7.757,7.757
	c0,4.285,3.472,7.757,7.757,7.757h335.061C471.542,310.973,461.727,323.113,450.1,334.287z"/>
<g>
</g>
<g>
</g>
<g>
</g>
<g>
</g>
<g>
</g>
<g>
</g>
<g>
</g>
<g>
</g>
<g>
</g>
<g>
</g>
<g>
</g>
<g>
</g>
<g>
</g>
<g>
</g>
<g>
</g>
</svg>
